<?xml version="1.0" encoding="utf-8"?>
<!-- Generator: Adobe Illustrator 22.1.0, SVG Export Plug-In . SVG Version: 6.00 Build 0)  -->
<svg version="1.1" id="Layer_1" xmlns:v="https://vecta.io/nano"
	 xmlns="http://www.w3.org/2000/svg" xmlns:xlink="http://www.w3.org/1999/xlink" x="0px" y="0px" viewBox="0 0 202 134"
	 enable-background="new 0 0 202 134" xml:space="preserve">
<g>
	<path fill="#109160" d="M43.9,9.9c8.4,1.5,17,3.4,23.8,8.5c2.6,2,5,4.6,5.9,7.7c0.3,1.1,0.4,2.4-0.4,3.3c-0.4,0.4-1,0.7-1.5,0.8
		c-1.9,0.5-4,0.3-5.8-0.6c-1.5-0.8-2.8-2-3.4-3.6c-0.6-1.4-0.8-2.2-2.1-3.2c-3.5-2.8-7-5.5-10.6-8.2C47.9,13,45.9,11.5,43.9,9.9z"/>
	<path fill="#10B57A" d="M56.7,28.3c-1.9-1.2-3.6-2.6-5.4-3.8c-4.1-2.9-8.5-5.3-13.2-7c8.2,0.2,16.4,1,24.5,2.2
		c2.8,0.4,5.7,0.9,8.1,2.4c2.4,1.5,4.4,4.1,4.3,6.9c-0.1,1.4-0.7,3-2.2,3.3c-1.7,0.3-3.8,0-5.5-0.2C63.5,31.6,59.9,30.3,56.7,28.3z"
		/>
	<path fill="#109160" d="M42.3,57.4c6.3-4.6,12.8-9,19.4-13.2c2-1.2,4-2.5,5.4-4.4c0.3-0.5,0.6-1.2,0.3-1.6
		c-0.2-0.2-0.4-0.3-0.6-0.4c-2.1-0.8-5-1.5-7.1-0.6c-2,0.8-3.8,2.2-5.5,3.5c-3.5,2.7-6.5,6-8.7,9.8C44.1,52.7,43.1,55,42.3,57.4z"/>
	<path fill="#10B57A" d="M64.5,36c-1.4-0.5-2.9-0.8-4.3-1.1c-2.3-0.4-4.6-0.9-7-0.9c-3.7-0.1-7.3,0.6-10.8,1.8
		c-3.5,1.2-6.7,2.9-9.9,4.7c0.9,0,1.9,0,2.8,0.1c1.3,0.1,2.5,0.5,3.8,0.7c2.6,0.5,5.3,0.6,8,0.7c2.4,0.1,4.8,0.1,7.2-0.2
		c3.1-0.4,6-1.5,8.9-2.5c0.8-0.3,3.4-0.8,3.8-1.6C67.4,36.9,65.1,36.2,64.5,36z"/>
	<path fill="#63AA85" d="M80.1,46.3c-1-1.2-2.2-2.2-3.4-3.2c-4.4-3.4-9.6-6.1-15.2-6.5c0-0.2,0.1-0.3,0.1-0.5c5,0.4,9.8,2.1,14,4.8
		c4.2,2.7,7.7,6.5,10.1,10.8c0.2,0.4,0.4,0.9,0.2,1.3c-0.4,0.7-1.5,0.6-2.1,0.2c-0.5-0.4-0.6-1-0.8-1.6
		C82.3,49.8,81.4,47.9,80.1,46.3z"/>
	<path fill="#63AA85" d="M81.1,41.1c-0.7-1.4-1.6-2.6-2.6-3.8c-3.5-4.3-8-8.1-13.3-9.8c0.1-0.1,0.1-0.3,0.2-0.4
		c4.7,1.5,9.1,4.2,12.6,7.8s6,8,7.4,12.8c0.1,0.4,0.2,0.9-0.1,1.3c-0.5,0.6-1.6,0.3-2-0.3c-0.4-0.5-0.3-1.1-0.4-1.7
		C82.5,45,82,42.9,81.1,41.1z"/>
	<path fill="#109160" d="M128.9,0.1c-8.3,1.7-16.9,3.7-23.6,9c-2.6,2-4.9,4.7-5.8,7.9c-0.3,1.1-0.4,2.4,0.4,3.3
		c0.4,0.4,1,0.6,1.5,0.8c1.9,0.5,4,0.2,5.8-0.7c1.5-0.8,2.7-2.1,3.3-3.7c0.5-1.4,0.8-2.2,2-3.3c3.4-2.9,6.9-5.6,10.4-8.5
		C125,3.3,126.9,1.7,128.9,0.1z"/>
	<path fill="#10B57A" d="M116.5,18.7c1.8-1.2,3.5-2.6,5.3-3.9c4-3,8.4-5.4,13.1-7.2c-8.2,0.4-16.3,1.3-24.4,2.8
		c-2.8,0.5-5.6,1.1-8,2.6c-2.4,1.5-4.3,4.2-4.1,7c0.1,1.4,0.7,3,2.2,3.2c1.7,0.3,3.8,0,5.5-0.3C109.7,22.2,113.3,20.8,116.5,18.7z"
		/>
	<path fill="#63AA85" d="M92.4,32.1c0.6-1.4,1.5-2.7,2.5-3.9c3.4-4.4,7.8-8.3,13.1-10.1c-0.1-0.1-0.1-0.3-0.2-0.4
		c-4.7,1.6-9,4.4-12.4,8.1c-3.4,3.7-5.8,8.2-7.1,13c-0.1,0.4-0.2,0.9,0.1,1.3c0.5,0.6,1.6,0.2,2-0.3c0.4-0.5,0.3-1.2,0.4-1.7
		C91.1,36,91.5,33.9,92.4,32.1z"/>
	<path fill="#FFFFFF" d="M140.9,100.8c0.1,0.6,0.1,1.2,0,1.8c-0.3,1.7-1.5,3.3-3.1,4.1c-1.6,0.8-3.5,0.9-5.1,0.2
		c-1.3-0.6-2.4-1.7-2.7-3.1c-0.1-0.7-0.1-1.4,0-2.1c0.4-2.3,2.1-4.8,4.6-5.1C137.3,96.3,140.4,98,140.9,100.8z"/>
	<path fill="#FFF3E3" d="M141,100.8c-0.1-0.7-0.5-1.4-0.9-1.9c0,0,0,0,0,0.1c0.1,0.6,0.1,1.2,0,1.8c-0.3,1.7-1.5,3.3-3.1,4.1
		c-1.6,0.8-3.5,0.9-5.1,0.2c-0.7-0.3-1.4-0.8-1.9-1.4c0,0,0,0.1,0,0.1c0.3,1.4,1.4,2.6,2.7,3.1c1.6,0.7,3.6,0.7,5.1-0.2
		c1.6-0.8,2.7-2.4,3.1-4.1C141.1,102,141.1,101.4,141,100.8z"/>
	<path fill="#3A3734" d="M148.9,83.4c0.7-0.1,1.5-0.3,1.9,0.2c0.2,0.4-0.1,0.6-0.3,0.9c0.6-0.5,1.5-0.6,2-0.1
		c0.5,0.5,0.3,1.6-0.4,1.7c0.3,0,0.5,0.4,0.4,0.7c-0.1,0.3-0.3,0.5-0.5,0.8c-2.5,2.5-6.5,4.2-10,4.2c-5.3,0.1-11.5,0-14.5-4.3
		c-1-1.4-0.8-5.9-0.4-7.5c0.4-1.9,2.3-3.3,4.3-3.6c2-0.3,3.5,0.5,4,2.5c0.4,1.7,1.2,2.2,2.8,3C141.5,83.6,145.3,84.2,148.9,83.4z"/>
	<path fill="#EFAC9E" d="M148.1,85.5c-0.3,0.1-0.5,0.3-0.6,0.6c-0.1,0.3-0.2,0.6,0,0.8c0.1,0.2,0.3,0.4,0.5,0.5
		c0.1,0.1,0.2,0.1,0.4,0.2c0.3,0.1,0.7,0,1-0.1c0.3-0.1,0.5-0.2,0.7-0.4c0.4-0.5,0.4-1.2-0.2-1.5C149.3,85.2,148.5,85.3,148.1,85.5z
		"/>
	<path fill="#EFAC9E" d="M149.1,84.2c0,0-0.1,0.1-0.1,0.2c0,0.1,0.1,0.2,0.2,0.3c0.1,0.1,0.2,0.1,0.4,0c0.2-0.1,0.4-0.2,0.5-0.5
		c0-0.1,0.1-0.2,0-0.4C149.9,83.5,149.3,84,149.1,84.2z"/>
	<path fill="#EFAC9E" d="M151.8,84.8c-0.4,0-0.8,0.1-1,0.4c-0.1,0.1-0.1,0.2-0.1,0.3c0,0.2,0.2,0.4,0.4,0.4c0.2,0,0.4,0,0.6-0.1
		c0.2-0.1,0.4-0.2,0.5-0.4C152.3,85.1,152.2,84.8,151.8,84.8z"/>
	<path fill="#EFAC9E" d="M150.8,86.9c0,0-0.1,0.1-0.1,0.1c0,0.1,0,0.2,0,0.2c0.1,0.2,0.3,0.3,0.5,0.3c0.2,0,0.3,0,0.5-0.1
		c0.1-0.1,0.2-0.1,0.3-0.2c0.1-0.1,0.1-0.2,0.1-0.4C151.9,86.4,151.1,86.7,150.8,86.9z"/>
	<path fill="#3A3734" d="M89.5,103.4c0.3,2,1.4,3.8,2.9,5.1c0.9,0.8,2.2,1.5,3.3,0.9c0.9-0.5,1.1-1.7,1.2-2.7
		c0.1-2.2-0.3-4.4-1.1-6.5c-0.4-1-0.9-2-1.7-2.6C90.8,95.4,89.2,101.1,89.5,103.4z"/>
	<path fill="#FFFFFF" d="M133.3,79.5l-15.1-3.6L98.9,64.6c0,0-1,22.2-1.4,28.4c-0.5,6.2,1.3,10.5,6.2,13.2
		c4.9,2.7,11.1,3.5,11.1,3.5s6.2,0.5,11.5-1.1c5.4-1.6,8-5.5,8.8-11.7C135.8,90.7,133.3,79.5,133.3,79.5z"/>
	<path fill="#FFF3E3" d="M133.3,79.5l-4.9-1.2c0.7,3.7,1.7,10.4,1.2,14.6c-0.8,6.1-3.4,10-8.8,11.7c-5.4,1.6-11.5,1.1-11.5,1.1
		s-4.9-0.6-9.4-2.7c1,1.2,2.2,2.3,3.8,3.2c4.9,2.7,11.1,3.5,11.1,3.5s6.2,0.5,11.5-1.1c5.4-1.6,8-5.5,8.8-11.7
		C135.8,90.7,133.3,79.5,133.3,79.5z"/>
	<path fill="#3A3734" d="M131.7,92.8c1.2-0.2,2.4-0.6,3.4-1.2c-0.4-5.8-1.8-12.2-1.8-12.2l-15.1-3.6L99,64.6c0,0-0.3,6.9-0.7,14.1
		c0.6,0,1.2,0,1.8,0.1c2.5,0.3,5,1,7.3,1.9c2.2,0.8,4.3,1.7,6.2,3c2.8,2,4.8,4.8,7.6,6.7C124.2,92.5,128.1,93.4,131.7,92.8z"/>
	<g>
		<g>
			<path fill="#3A3734" d="M98.5,46.9c0,0-11.2-10.6,0.2-17.7c10.1-6.3,15.2,7,15.2,7L98.5,46.9z"/>
			<path fill="#EFAC9E" d="M101.1,43c0,0-6.3-5.9,0.1-9.9c5.6-3.5,8.5,3.9,8.5,3.9L101.1,43z"/>
			<path fill="#232120" d="M96.9,30.4c9.6-6.1,14.8,5.9,15.2,6.9l1.8-1.2c0,0-5.1-13.3-15.2-7c-0.7,0.5-1.4,0.9-2,1.4
				C96.8,30.5,96.9,30.5,96.9,30.4z"/>
			<path opacity="0.22" fill="#FFFFFF" d="M95,34.7c-0.4,0.9-0.5,2-0.3,3c0.1,0.5,0.3,0.9,0.8,1c0.4,0.1,0.8-0.2,1-0.5
				s0.3-0.8,0.2-1.2c0-0.4-0.2-0.8-0.2-1.3c-0.1-1,0.1-2.1,0.7-3c0.1-0.2,0.2-0.4,0.1-0.6C96.8,31.2,95.1,34.3,95,34.7z"/>
		</g>
		<g>
			<path fill="#3A3734" d="M142.5,48.5c0,0,12.2-9.4,17.5,3c4.7,10.9-9.3,13.9-9.3,13.9L142.5,48.5z"/>
			<path fill="#EFAC9E" d="M145.9,51.6c0,0,6.8-5.3,9.8,1.7c2.6,6.1-5.2,7.8-5.2,7.8L145.9,51.6z"/>
			<path fill="#232120" d="M159,49.5c4.5,10.5-8.2,13.6-9.2,13.9l0.9,2c0,0,13.9-3,9.3-13.9c-0.3-0.8-0.7-1.5-1.1-2.2
				C158.9,49.4,158.9,49.4,159,49.5z"/>
			<path opacity="0.22" fill="#FFFFFF" d="M155.1,46.9c-0.9-0.5-1.9-0.8-2.9-0.8c-0.5,0-1,0.2-1.2,0.6c-0.2,0.4,0,0.8,0.4,1.1
				c0.3,0.3,0.8,0.4,1.2,0.4c0.4,0,0.8,0,1.3,0c1,0,2.1,0.5,2.9,1.2c0.2,0.1,0.4,0.3,0.6,0.2C158.3,49.3,155.4,47.1,155.1,46.9z"/>
		</g>
		<path fill="#FFFFFF" d="M150.6,67.9c1.7-6.1,0.7-15.3-5.2-22.2c-5.4-6.4-22.1-13.1-31.8-11.9c-8.1,0.9-15.2,7.6-18,13.3
			c-2.8,5.7-5.1,16.7,2.7,22.3c7.8,5.5,25.6,12.2,35.2,13.2C143.1,83.5,148.9,74.1,150.6,67.9z"/>
		<path fill="#FFF3E3" d="M150.7,67.9c1.6-5.9,0.8-14.5-4.5-21.3c2,5.3,2.1,10.8,0.9,14.9c-1.7,6.1-7.6,15.6-17.1,14.6
			c-9.5-1-27.3-7.7-35.2-13.2c-0.5-0.4-1-0.7-1.4-1.1c0.6,2.9,2.1,5.6,4.9,7.5c7.8,5.5,25.6,12.2,35.2,13.2
			C143.1,83.5,149,74.1,150.7,67.9z"/>
		<path fill="#3A3734" d="M111.7,40.7c-2.1,0.5-4.1,1.5-6,2.6c-2.4,1.4-4.8,3.1-6.1,5.5c-0.2,0.4-1.2,2.4,0.3,5
			c0.6,1.1,1.6,1.8,2.8,2.2c5.7,2.1,9.2-0.4,10-1c2.5-1.9,4.6-4.4,7.2-6.2c0.8-0.6,1.6-1.2,2-2c0.9-1.5,0.3-5.6-5.2-6.3
			C114.9,40.3,113.3,40.4,111.7,40.7z"/>
		<path fill="#3A3734" d="M141.2,51.8c1.3,1.8,2.2,3.8,2.9,5.9c0.9,2.6,1.6,5.5,1,8.2c-0.1,0.5-0.7,2.6-3.5,3.6
			c-1.2,0.4-2.4,0.3-3.6-0.1c-5.7-2.1-6.7-6.3-6.9-7.3c-0.7-3.1-0.6-6.3-1.3-9.4c-0.2-0.9-0.4-1.9-0.2-2.9c0.4-1.7,3.4-4.4,8-1.3
			C139,49.3,140.2,50.5,141.2,51.8z"/>
		<path fill="#3A3734" d="M127.2,56.6c-1.1-1-3.3-2-3.6-2.1c-0.3-0.2-2.6-0.9-4.1-0.8c-0.8,0-1.6,0.6-1.9,1.4
			c-0.5,1.2,0.2,1.8,0.5,2.2c0.8,0.8,1.8,1.5,2.3,2.5c0.1,0.3,0.2,0.6,0.4,0.8c0.1,0.2,0.3,0.3,0.4,0.4c0.2,0.1,0.4,0.1,0.6,0
			c0.3-0.1,0.5-0.2,0.8-0.4c1-0.5,2.2-0.3,3.4-0.4c0.5,0,1.4,0,1.8-1.3C128,58.2,127.7,57.2,127.2,56.6z"/>
		<path opacity="0.22" fill="#FFFFFF" d="M118.6,55.1c-0.1,0.3,0.1,0.7,0.4,0.8c0.3,0.1,0.7,0.1,1,0c0.3-0.1,0.6-0.3,0.9-0.4
			c0.7-0.1,1.4,0.3,2.1,0.3c0.1,0,0.2,0,0.3-0.1c0.1-0.1,0-0.2,0-0.3c-0.1-0.1-0.2-0.1-0.3-0.2C122.2,54.8,118.9,53.6,118.6,55.1z"
			/>
		<path fill="#EFAC9E" d="M116.9,66c0.3,0.4,0.7,0.8,1.2,1c0.7,0.4,1.5,0.7,2.4,0.7c0.8,0,1.7-0.2,2.3-0.8c-0.4-0.2-0.6-0.6-0.7-1
			c-0.2-0.3-0.3-0.7-0.4-1c-0.4-1.1-0.6-2.2-0.4-3.3c-0.4,0.5-0.8,0.9-1.2,1.4c-0.2,0.2-0.4,0.4-0.6,0.6c-0.2,0.1-0.4,0.2-0.5,0.3
			c-0.3,0.2-0.6,0.4-1,0.5c-0.2,0.1-0.5,0.1-0.7,0.2c-0.2,0-0.5,0-0.6,0.2C116.3,65.1,116.7,65.7,116.9,66z"/>
		<path fill="#ED8A7A" d="M119,65.2c0.4,0.2,0.9,0.3,1.3,0.3c0.4,0,0.8,0,1.1-0.3c0,0,0.1-0.1,0.1-0.1c0,0,0-0.1,0-0.1
			c0-0.3-0.1-0.6-0.2-0.8c-0.1-0.2-0.2-0.4-0.2-0.7c-0.2-0.6-0.1-1.3-0.1-1.9c-0.2,0-0.3,0.3-0.4,0.4c-0.3,0.5-0.8,0.8-1.3,1.1
			c-0.3,0.2-1.3,0.7-1.1,1.2C118.3,64.8,118.7,65.1,119,65.2z"/>
		<path fill="#3A3734" d="M125.2,68.1c0-0.2-0.1-0.3-0.2-0.3c-1.2-0.3-2.3-1-3-2.1c-0.7-1.1-0.9-2.5-0.7-3.8c0-0.3,0.1-0.7,0.2-1
			c0.3-0.6,0.5-1.3,0.7-2c0.1-0.3-0.4-0.5-0.5-0.2c-0.1,0.2-0.1,0.3-0.2,0.5c-0.1,0-0.2,0.1-0.3,0.2c-0.1,0.5-0.2,0.9-0.3,1.4
			c-0.3,0.7-0.7,1.3-1.2,1.8c-0.8,0.9-2,1.5-3.3,1.6c-0.7,0-1.4-0.1-2-0.3c-0.3-0.1-0.5,0.4-0.2,0.5c1.3,0.5,2.7,0.4,3.9-0.1
			c0.6-0.3,1.2-0.6,1.7-1.1c0.3-0.3,0.5-0.6,0.8-1c0,0.5,0,1.1,0,1.6c0.2,1.4,1,2.6,2.1,3.5c0.6,0.5,1.3,0.8,2.1,1
			C125.1,68.3,125.2,68.2,125.2,68.1z"/>
		<g>
			<g>
				<path fill="#232120" d="M116.3,47.8c-0.8,2.1-3.2,3.2-5.3,2.4c-2.1-0.8-3.2-3.2-2.4-5.3c0.8-2.1,3.2-3.2,5.3-2.4
					C116,43.3,117.1,45.6,116.3,47.8z"/>
				<path fill="#FFFFFF" d="M116.2,48.2c-0.8,2.1-3.2,3.2-5.3,2.4c-2.1-0.8-3.2-3.2-2.4-5.3c0.8-2.1,3.2-3.2,5.3-2.4
					C115.9,43.7,117,46,116.2,48.2z"/>
				<path fill="#E3FFFE" d="M116.2,45.4c0.1,0.6,0,1.3-0.2,1.9c-0.8,2.1-3.2,3.2-5.3,2.4c-1.2-0.4-2.1-1.4-2.4-2.5
					c0.2,1.5,1.1,2.8,2.6,3.4c2.1,0.8,4.5-0.3,5.3-2.4C116.5,47.2,116.5,46.3,116.2,45.4z"/>
				<path fill="#39B4EA" d="M114.7,47.8c-0.5,1.4-2.1,2.1-3.5,1.6c-1.4-0.5-2.1-2.1-1.6-3.5c0.5-1.4,2.1-2.1,3.5-1.6
					C114.5,44.9,115.2,46.4,114.7,47.8z"/>
				<path fill="#2D90B2" d="M114,44.9c0.2,0.6,0.3,1.3,0,1.9c-0.5,1.4-2.1,2.1-3.5,1.6c-0.3-0.1-0.7-0.3-0.9-0.6
					c0.3,0.7,0.8,1.2,1.5,1.5c1.4,0.5,2.9-0.2,3.5-1.6C115,46.8,114.7,45.6,114,44.9z"/>
				<path fill="#232120" d="M113.8,47.5c-0.3,0.8-1.3,1.3-2.1,1c-0.8-0.3-1.3-1.3-1-2.1c0.3-0.8,1.3-1.3,2.1-1
					C113.7,45.7,114.1,46.6,113.8,47.5z"/>
				<path fill="#FFFFFF" d="M110.1,45.8c0,0.1-0.1,0.3-0.1,0.4c0,0.1,0,0.3,0.1,0.4c0.1,0.1,0.3,0.1,0.4,0.1c0.1,0,0.3-0.1,0.4-0.2
					c0.4-0.3,0.8-0.6,1-1c0.1-0.1,0.1-0.2,0-0.3c0-0.1-0.1-0.1-0.2-0.1C111.2,44.6,110.4,45.2,110.1,45.8z"/>
				<g>
					<path fill="#288199" d="M112.1,49.6c-0.3,0-0.7-0.1-1-0.2c-1.4-0.5-2.2-2.2-1.6-3.6c0.4-1.1,1.5-1.8,2.6-1.8
						c0.3,0,0.7,0.1,1,0.2c1.4,0.5,2.2,2.2,1.6,3.6C114.4,48.9,113.3,49.6,112.1,49.6z M112.1,44.3c-1.1,0-2,0.7-2.4,1.7
						c-0.5,1.3,0.2,2.8,1.5,3.3c0.3,0.1,0.6,0.2,0.9,0.2c1.1,0,2-0.7,2.4-1.7c0.2-0.6,0.2-1.3-0.1-2c-0.3-0.6-0.8-1.1-1.4-1.3
						C112.8,44.3,112.5,44.3,112.1,44.3z"/>
				</g>
			</g>
			<path fill="#FFFFFF" d="M112.6,44.7c-0.1,0-0.1,0-0.2,0c-0.1,0-0.1,0.1-0.1,0.2c0,0.1,0.1,0.2,0.2,0.2c0.1,0.1,0.3,0.1,0.4,0.1
				c0.1,0,0.2,0,0.2-0.1c0.1,0,0.1-0.1,0.1-0.2c0,0,0-0.1-0.1-0.1C113,44.7,112.8,44.6,112.6,44.7L112.6,44.7z"/>
		</g>
		<g>
			<g>
				<path fill="#232120" d="M140.5,56.6c-0.8,2.1-3.2,3.2-5.3,2.4c-2.1-0.8-3.2-3.2-2.4-5.3c0.8-2.1,3.2-3.2,5.3-2.4
					C140.2,52.1,141.3,54.4,140.5,56.6z"/>
				<path fill="#FFFFFF" d="M140.3,57c-0.8,2.1-3.2,3.2-5.3,2.4c-2.1-0.8-3.2-3.2-2.4-5.3c0.8-2.1,3.2-3.2,5.3-2.4
					C140,52.5,141.1,54.8,140.3,57z"/>
				<path fill="#E3FFFE" d="M140.4,54.2c0.1,0.6,0,1.3-0.2,1.9c-0.8,2.1-3.2,3.2-5.3,2.4c-1.2-0.4-2.1-1.4-2.4-2.5
					c0.2,1.5,1.1,2.8,2.6,3.4c2.1,0.8,4.5-0.3,5.3-2.4C140.7,56,140.7,55.1,140.4,54.2z"/>
				<path fill="#39B4EA" d="M138.8,56.6c-0.5,1.4-2.1,2.1-3.5,1.6s-2.1-2.1-1.6-3.5c0.5-1.4,2.1-2.1,3.5-1.6
					C138.6,53.7,139.3,55.2,138.8,56.6z"/>
				<path fill="#2D90B2" d="M138.1,53.7c0.2,0.6,0.3,1.3,0,1.9c-0.5,1.4-2.1,2.1-3.5,1.6c-0.3-0.1-0.7-0.3-0.9-0.6
					c0.3,0.7,0.8,1.2,1.5,1.5c1.4,0.5,2.9-0.2,3.5-1.6C139.2,55.6,138.9,54.4,138.1,53.7z"/>
				<path fill="#232120" d="M137.9,56.3c-0.3,0.8-1.3,1.3-2.1,1c-0.8-0.3-1.3-1.3-1-2.1c0.3-0.8,1.3-1.3,2.1-1
					C137.8,54.5,138.3,55.4,137.9,56.3z"/>
				<path fill="#FFFFFF" d="M134.3,54.6c0,0.1-0.1,0.3-0.1,0.4c0,0.1,0,0.3,0.1,0.4c0.1,0.1,0.3,0.1,0.4,0.1c0.1,0,0.3-0.1,0.4-0.2
					c0.4-0.3,0.8-0.6,1-1c0.1-0.1,0.1-0.2,0-0.3c0-0.1-0.1-0.1-0.2-0.1C135.3,53.4,134.5,54,134.3,54.6z"/>
				<g>
					<path fill="#288199" d="M136.3,58.5c-0.3,0-0.7-0.1-1-0.2c-1.4-0.5-2.2-2.2-1.6-3.6c0.4-1.1,1.5-1.8,2.6-1.8
						c0.3,0,0.7,0.1,1,0.2c0.7,0.3,1.3,0.8,1.6,1.5c0.3,0.7,0.3,1.4,0.1,2.1C138.5,57.7,137.5,58.5,136.3,58.5z M136.3,53.1
						c-1.1,0-2,0.7-2.4,1.7c-0.2,0.6-0.2,1.3,0.1,2c0.3,0.6,0.8,1.1,1.4,1.3c0.3,0.1,0.6,0.2,0.9,0.2c1.1,0,2-0.7,2.4-1.7
						c0.2-0.6,0.2-1.3-0.1-2c-0.3-0.6-0.8-1.1-1.4-1.3C136.9,53.1,136.6,53.1,136.3,53.1z"/>
				</g>
			</g>
			<path fill="#FFFFFF" d="M136.8,53.5c-0.1,0-0.1,0-0.2,0c-0.1,0-0.1,0.1-0.1,0.2c0,0.1,0.1,0.2,0.2,0.2c0.1,0.1,0.3,0.1,0.4,0.1
				c0.1,0,0.2,0,0.2-0.1c0.1,0,0.1-0.1,0.1-0.2c0,0,0-0.1-0.1-0.1C137.2,53.5,137,53.4,136.8,53.5L136.8,53.5z"/>
		</g>
		<path fill="#FFFFFF" d="M124.9,37.1c1,0,2-0.6,2.3-1.5c0.4-0.9,0.2-2-0.5-2.7c1.1,0.3,2,1,2.5,2c0.5-0.8,1.3-1.5,2.1-1.9
			c0.9-0.4,1.8-0.6,2.8-0.8c-1.1,1-1.8,2.4-1.9,3.9c0.4-0.2,0.8-0.2,1.2-0.1c-0.5,0.4-0.8,1-0.8,1.6c0,0.6,0.3,1.1,0.3,1.7
			c0,0.3,0,0.5-0.1,0.8c-0.2,0.4-0.7,0.5-1.2,0.5c-2,0.1-3.9-0.4-5.7-1.1c-0.6-0.2-1.2-0.6-1.1-1.2c0.1-0.4,0.5-0.7,0.9-0.8
			L124.9,37.1z"/>
	</g>
	<path fill="#10B57A" d="M79.3,27.4c0,0.5,5.1,48.6,13.4,76.5c8.3,27.9,9.4,28.4,9.4,28.4s4.3,3.1,11.8,0.4c5.5-1.9,4.6-5.3,4.6-5.3
		s0.7-0.1-7.7-19.9c-10.6-25.1-18.2-80.2-18.2-80.2s0.2-2.6-5.7-2.5C81.2,24.9,79.3,27.4,79.3,27.4z"/>
	<path fill="#109160" d="M118.5,127.5c0,0,0.7-0.1-7.7-19.9c-10.6-25.1-18.2-80.2-18.2-80.2s0.2-2.5-5.3-2.5
		c0.7,0.7,0.7,1.3,0.7,1.3s7.7,55.1,18.2,80.2c8.3,19.8,7.7,19.9,7.7,19.9s0.9,3.4-4.6,5.3c-2.7,0.9-5,1.1-6.8,1
		c1.2,0.7,5.2,2.3,11.4,0.2C119.4,130.9,118.5,127.5,118.5,127.5z"/>
	<path fill="#3A3734" d="M111.5,99.3c-1.2,1.1-2.3,2.4-3.4,3.6c-1.4,1.5-3,2.7-4.6,3.9c-0.5,0.3-0.9,0.7-1.2,1.2
		c-0.2,0.4-0.2,0.9-0.1,1.4c0.3,1.7,1.5,3,3,3.8c1.5,0.8,3.2,1,4.9,1c6.5,0.3,13.1-1.7,18.4-5.4c1.2-0.8,2.4-1.8,3.2-3
		c0.8-1.2,1.3-2.7,1-4.2c-0.4-1.8-1.8-3.1-3.4-4c-2.8-1.5-6.2-2.5-9.4-2.2C116.7,95.9,113.8,97.2,111.5,99.3z"/>
	<path fill="#3A3734" d="M102.9,103c-0.6-0.3-1.4-0.3-2,0c-0.6,0.3-1,1.1-0.7,1.7c-0.5,0.2-0.7,0.7-0.7,1.2c0,0.8,0.3,1.6,0.7,2.3
		c0.8,1.5,1.7,3,2.8,4.3c0.5,0.6,1.1,1.1,1.8,1.4c0.6,0.2,1.4,0.2,2,0.1c1.3-0.1,2.6-0.3,3.5-1.2c1-1,1.2-2.6,0.8-4
		c-0.4-1.4-1.3-2.5-2.3-3.6c-0.6-0.7-0.4-2.8-1.1-2.2c-0.5,0.4-1.2,0.6-1.8,0.8C104.7,104.2,104.1,103.5,102.9,103z"/>
	<path fill="#3A3734" d="M90,83.4c0.5-0.3,0.8-1,0.5-1.4c0.6,0.2,1.4-0.2,1.6-0.8c0.2-0.6-0.2-1.4-0.8-1.6c0.6,0.1,1-0.6,0.8-1.1
		c-0.1-0.5-0.6-0.9-1-1.2c-1-0.7-2.2-1.1-3.3-1.7c-1.1-0.6-2.1-1.5-2.4-2.7c-0.6,1.2-1.1,2.9-1.1,5.1C84.3,84.4,89.5,83.7,90,83.4z"
		/>
	<path fill="#10B57A" d="M99.9,129.5c0.3,0.3,1.3,0.9,1.8,1.3c0.1,0.1,0.4-0.6,2.2-1.2c4.8-1.8,9.1-2.3,13.7-2.2
		c0.2,0,0.5,0,0.6-0.1c0.2-0.1,0.3-0.3,0.3-0.4c1.1-2.5,0.1-5.2-1.2-7.6c-0.3-0.5-1.8-2.2-2.7-2.3c-4.2-0.6-12.4,0.1-15.7,3.1
		C96.2,122.3,97.4,127.5,99.9,129.5z"/>
	<path fill="#109160" d="M85.3,60.4c2.3-0.2,4.5,0.5,6.6,1.3c1.2,0.4,2.3,0.9,3.3,1.7c0.9,0.8,1.6,1.9,2.3,2.9
		c-0.3-3.1-0.7-6.2-1.7-9.2c-0.4-1.2-1-2.3-2-3c-0.9-0.6-2.1-0.6-3.1-0.5c-2.3,0.1-4.7,0.8-6,2.7c-0.6,0.9-0.9,1.9-1.1,2.9
		C83.3,60.4,84.3,60.5,85.3,60.4z"/>
	<path fill="#63AA85" d="M82.1,58.6c0.3,0.3,1.1,1,1.5,1.4c0.1,0.1,0.4-0.5,1.9-1.1c4.2-1.4,7.9-1.7,11.8-1.3c0.2,0,0.4,0,0.6-0.1
		c0.2-0.1,0.2-0.3,0.3-0.4c1.1-2.4,0.2-5.2-0.8-7.6c-0.2-0.5-0.4-1-0.8-1.4c-0.5-0.5-1.4-1.2-2.1-1.3c-3.6-0.4-9.6-0.6-12.6,2.1
		C79.4,51.2,80.1,56.5,82.1,58.6z"/>
	<path opacity="0.22" fill="#FFFFFF" d="M81.8,53.5c0.1,0.3,0.2,0.6,0.5,0.7c0.4,0.3,1,0.1,1.3-0.2c0.4-0.3,0.6-0.8,0.9-1.2
		c1.2-1.7,3.5-2.2,5.4-3c0.2-0.1,0.4-0.2,0.6-0.4c0.2-0.3,0.1-0.7-0.2-1c-0.3-0.2-0.6-0.3-1-0.4C86.2,47.7,80.6,49.3,81.8,53.5z"/>
	<path opacity="0.22" fill="#FFFFFF" d="M99.5,121c-0.5,0.6-1,1.2-1.2,2c-0.2,0.7-0.2,1.6,0.3,2.2c0.5,0.6,1.4,0.9,2.1,0.5
		c0.8-0.5,0.9-1.6,1.2-2.5c0.4-1.2,1.3-2.3,2.5-2.9c1-0.5,2.2-0.7,3.3-1c0.4-0.1,0.8-0.5,0.6-0.8c-0.1-0.2-0.3-0.2-0.5-0.2
		C105,118.1,101.5,118.8,99.5,121z"/>
	<path opacity="0.22" fill="#FFFFFF" d="M99.8,18.3c0,0.9,0.5,2,1.4,2c1,0,1.5-1.1,2-1.9c1.2-2.3,3.3-3.9,5.6-5.1
		c2.3-1.1,4.8-1.7,7.3-2.4c-1.6,0.4-3.6,0-5.3,0.2c-1.8,0.2-3.7,0.7-5.4,1.3C103.1,13.3,99.9,15.7,99.8,18.3z"/>
	<path opacity="0.22" fill="#FFFFFF" d="M43.9,37.8c5.9-0.9,12,0.1,17.9-0.6c0.2,0,0.4-0.1,0.4-0.2c0.1-0.2-0.2-0.4-0.4-0.5
		c-3.3-1.1-6.8-1.2-10.3-0.9c-3.4,0.3-6.8,1.2-10.2,2c-1.9,0.5-3.8,1-5.4,2C38.6,39,41.2,38.2,43.9,37.8z"/>
	<path opacity="0.22" fill="#FFFFFF" d="M119.4,99.7c1,0.2,2-0.1,3-0.1c1.2,0,2.4,0.4,3.5,0.8c0.3,0.1,0.7,0.2,1,0.1
		c0.5-0.1,0.8-0.7,0.7-1.2c0-0.5-0.4-0.9-0.7-1.3c-0.9-0.8-2.2-1-3.5-1.1c-1.2-0.1-3.1-0.3-4.3,0.3
		C118.1,97.8,118.1,99.5,119.4,99.7z"/>
</g>
</svg>
