<?xml version="1.0" encoding="utf-8"?>
<!-- Generator: Adobe Illustrator 22.1.0, SVG Export Plug-In . SVG Version: 6.00 Build 0)  -->
<svg version="1.1" id="Layer_1" xmlns:v="https://vecta.io/nano"
	 xmlns="http://www.w3.org/2000/svg" xmlns:xlink="http://www.w3.org/1999/xlink" x="0px" y="0px" viewBox="0 0 202 134"
	 enable-background="new 0 0 202 134" xml:space="preserve">
<ellipse fill="#10B57A" cx="103.9" cy="126.4" rx="80" ry="6.8"/>
<path fill="#3A3734" d="M37.5,111.3c-2.3,0.7-2.4,2.5-1.2,3.9c-1.5-0.7-3.5-0.4-4.4,1c-0.9,1.4-0.1,3.7,1.6,3.9
	c-1.3,0.4-1.5,2.2-0.8,3.3c0.8,1.1,2.1,1.5,3.4,1.9c7.1,2,14.5,2.4,21.8,2.2c14.5-0.3,29-2.7,42.8-7.3c2.8-0.9,5.5-1.9,7.8-3.8
	c2.2-1.8,3.8-4.7,3.5-7.6c-0.5-3.8-4-6.4-7.3-8.1c-4.7-2.5-9.8-4.3-15.1-4.4c-10.8-0.2-14.5,6.6-23.2,10.7c-4.6,2.1-9.7,5-14.8,5.5
	C50.1,112.6,37.5,111.4,37.5,111.3z"/>
<path fill="#3A3734" d="M108.3,14.6c-0.3-1.3-0.6-2.8,0.4-3.6c0.7-0.4,1.2,0.2,1.6,0.5c-0.9-1.1-1.1-2.8-0.2-3.8
	c0.9-1,3.1-0.6,3.3,0.8c0.1-0.6,0.7-0.9,1.3-0.8c0.6,0.1,1,0.5,1.4,0.9c4.7,4.6,7.9,12.1,8,18.7c0.2,9.9,0.1,21.6-7.9,27.3
	c-2.6,1.9-11,1.5-14.2,0.8c-3.6-0.8-6.2-4.3-6.7-8c-0.6-3.7,1-6.6,4.6-7.5c3.1-0.8,4.1-2.2,5.6-5.2
	C108.7,28.4,109.7,21.3,108.3,14.6z"/>
<path fill="#EFAC9E" d="M112.2,16.1c0.3,0.5,0.6,0.9,1.1,1.2c0.5,0.2,1.1,0.3,1.6,0.1c0.4-0.2,0.8-0.5,1-0.9
	c0.1-0.2,0.2-0.5,0.3-0.7c0.2-0.6,0-1.3-0.2-1.9c-0.2-0.5-0.4-1-0.8-1.3c-0.9-0.8-2.2-0.7-2.9,0.3C111.6,13.8,111.7,15.2,112.2,16.1
	z"/>
<path fill="#EFAC9E" d="M109.7,14.1c0.1,0.1,0.2,0.1,0.3,0.1c0.2,0,0.5-0.1,0.6-0.3c0.1-0.2,0.1-0.5,0.1-0.7c-0.1-0.4-0.4-0.8-0.9-1
	c-0.2-0.1-0.5-0.1-0.7,0C108.3,12.6,109.3,13.8,109.7,14.1z"/>
<path fill="#EFAC9E" d="M110.7,9c-0.1,0.7,0.2,1.5,0.8,1.9c0.2,0.1,0.4,0.3,0.6,0.2c0.4,0,0.7-0.4,0.8-0.7c0.1-0.4,0-0.8-0.2-1.1
	c-0.2-0.4-0.4-0.8-0.8-0.9C111.4,8.2,110.8,8.4,110.7,9z"/>
<path fill="#EFAC9E" d="M114.8,10.9c0.1,0.1,0.1,0.1,0.2,0.2c0.1,0.1,0.3,0,0.5-0.1c0.3-0.2,0.5-0.5,0.6-0.9c0-0.3-0.1-0.6-0.2-0.9
	c-0.1-0.2-0.2-0.4-0.4-0.6c-0.2-0.2-0.5-0.2-0.7-0.1C113.9,8.9,114.3,10.4,114.8,10.9z"/>
<path fill="#3A3734" d="M175.2,31.8c-0.2-1.2,0.1-2.5,0.9-3.4c0.8-0.9,2.3-1.2,3.3-0.5c0.5-0.8,1.6-0.9,2.4-0.7
	c1.4,0.3,2.6,1.3,3.7,2.2c2.2,2,4.3,4.2,6,6.7c0.7,1.1,1.4,2.4,1.5,3.7c0.1,1.2-0.3,2.4-0.7,3.5c-0.7,2.1-2.5,4.9-3.2,7.7
	c-0.6,2.4-5.5-1.4-7.6-2.7c-2.1-1.3-3.7-7.4-5.1-5.4c-0.7,1-2.5,0.3-1.2-1.5C177.4,38.5,175.5,34,175.2,31.8z"/>
<path fill="#3A3734" d="M152.6,62.5c0.6-4.1,2.7-8,5.8-10.9c2.1-1.9,4.5-3.3,6.9-4.7c5.4-3.1,10.8-6.2,16.3-9.2
	c2.4-1.4,5.7-2.6,7.7-0.7c1.3,1.3,1.2,3.4,1.1,5.2c-1.1,11.7-4.1,23.2-8.7,34c-1,2.3-2.1,4.7-4,6.4
	C165.8,93.5,150.8,74.1,152.6,62.5z"/>
<path fill="#FFFFFF" d="M75.3,115.5c21.6,12.6,53.2,11.6,72.3,6.9c6.9-1.7,16.7-7.6,22.2-12.4c11.6-10.3,13.7-29.6,9.3-45.7
	c-1.3-4.6-3-9.2-5.9-12.9c-6.9-8.8-18.5-10.8-28.9-10.7c-21.4,0.1-42.6,5.9-61.3,16.8c-11.2,6.5-23.1,16.1-28.1,29.5
	C49.9,100.3,66.1,110.1,75.3,115.5z"/>
<path fill="#3A3734" d="M83,57.3c-11.2,6.5-23.1,16.1-28.1,29.5c-5,13.4,10.8,23.9,19.9,29.2c10.4,6.1,23.6,8.3,36.1,9.2
	c0.3-0.1,0.7-0.2,1-0.4c6-2.7,8.8-9.9,8.7-16.4c-0.1-6.6-2.4-12.9-3.8-19.3c-3.5-16.1-0.8-33.9,8.8-47.1
	C110.7,44.5,96.2,49.6,83,57.3z"/>
<g>
	<path fill="#3A3734" d="M29.1,83.2c0,0-25,6.2-24.7-16.3c0.3-19.8,23.6-15,23.6-15L29.1,83.2z"/>
	<path fill="#EFAC9E" d="M25.9,76c0,0-14,3.4-13.8-9.1c0.2-11.1,13.2-8.3,13.2-8.3L25.9,76z"/>
	<path fill="#232120" d="M4.6,70.5c0.3-19,21.7-15.3,23.5-15l-0.1-3.6c0,0-23.3-4.9-23.6,15c0,1.5,0.1,2.8,0.2,4
		C4.6,70.7,4.6,70.6,4.6,70.5z"/>
	<path opacity="0.22" fill="#FFFFFF" d="M8.7,77c1,1.4,2.3,2.6,3.9,3.1c0.7,0.3,1.6,0.4,2.2-0.2c0.5-0.5,0.5-1.3,0.2-1.9
		c-0.3-0.6-0.9-1.1-1.5-1.4c-0.6-0.3-1.3-0.5-1.9-0.9C10,75,8.7,73.7,8,72.1c-0.1-0.3-0.3-0.7-0.7-0.7C5.5,71.3,8.4,76.6,8.7,77z"/>
</g>
<g>
	<path fill="#3A3734" d="M58.8,22c0,0-3.7-23.1,16.6-21.1c17.9,1.8,11.7,22.4,11.7,22.4L58.8,22z"/>
	<path fill="#EFAC9E" d="M65.5,19.7c0,0-2.1-12.9,9.3-11.8c10,1,6.5,12.5,6.5,12.5L65.5,19.7z"/>
	<path fill="#232120" d="M72.1,0.9c17.2,1.7,12.2,20.7,11.8,22.3l3.3,0.2c0,0,6.2-20.7-11.7-22.4c-1.3-0.1-2.5-0.2-3.7-0.1
		C71.9,0.8,72,0.8,72.1,0.9z"/>
	<path opacity="0.22" fill="#FFFFFF" d="M65.8,4.1c-1.3,0.8-2.5,1.9-3.1,3.3c-0.3,0.6-0.5,1.4,0,2c0.4,0.5,1.1,0.6,1.7,0.3
		C65,9.5,65.5,9,65.8,8.4c0.3-0.5,0.6-1.1,0.9-1.7c0.8-1.4,2.1-2.4,3.6-2.9c0.3-0.1,0.7-0.3,0.7-0.6C71.3,1.6,66.3,3.8,65.8,4.1z"/>
</g>
<path fill="#FFFFFF" d="M96.9,26.8c-9.1-7.7-24.7-13.8-39.1-10.9c-13.4,2.7-33.3,22.2-36.7,37.6c-2.8,12.8,4.2,29.1,12.1,38
	c7.9,8.9,24.7,21.6,37.9,14.6C84.4,99.1,105,78,111.7,64.6C118.4,51.2,106.1,34.5,96.9,26.8z"/>
<path fill="#FFF3E3" d="M98.4,26.9c-8.8-7.4-24.8-13.5-38.8-11.4c9.7,1.5,18.8,5.9,24.9,11.1c9.1,7.7,25.2,27.2,19.6,41.1
	c-8.8,21.9-28.2,34.9-48,39.4c5.1,1.5,11.2,1.1,16.2-1c22.1-9.2,35.5-22.1,40.7-42.6C116.9,49.1,107.5,34.6,98.4,26.9z"/>
<path fill="#3A3734" d="M34.6,58.5c-0.2,3.8,0.4,7.8,1.3,11.6c1.1,4.9,2.8,9.9,6.3,13.8c0.6,0.7,3.6,3.6,8.7,3c2.1-0.3,4-1.4,5.3-3
	c6.7-7.8,4.1-15.2,3.4-17c-2-5.4-5.1-10.5-7-15.9c-0.6-1.7-1.2-3.3-2.5-4.7c-2.2-2.5-9.5-4.4-13.5,4.1C35.6,53,34.8,55.7,34.6,58.5z
	"/>
<path fill="#3A3734" d="M68.8,22c3.5-0.2,7.2,0.3,10.8,1.1c4.6,1,9.5,2.5,13.6,5.7c0.7,0.6,3.9,3.3,4.1,8c0.1,2-0.7,3.7-1.9,4.9
	c-6.1,6.2-13.3,3.9-15,3.3c-5.3-1.8-10.4-4.7-15.7-6.3c-1.6-0.5-3.3-1.1-4.7-2.2c-2.6-2-5.5-8.7,1.6-12.5
	C63.9,22.9,66.2,22.2,68.8,22z"/>
<path fill="#3A3734" d="M76.3,48.4c-2.1,0.7-4.7,2.9-4.9,3.3c-0.4,0.2-2.7,2.8-3.5,4.8c-0.4,1.1-0.1,2.6,0.7,3.5
	c1.4,1.5,2.6,1,3.3,0.8c1.6-0.5,3.1-1.4,4.8-1.3c0.4,0,0.9,0.1,1.3,0.1c0.3,0,0.5-0.1,0.7-0.3c0.2-0.2,0.3-0.5,0.3-0.7
	c0.1-0.4,0-0.9,0-1.3c-0.1-1.7,0.9-3.2,1.5-4.7c0.3-0.7,0.8-1.8-0.7-3.3C78.8,48.4,77.4,48,76.3,48.4z"/>
<path opacity="0.22" fill="#FFFFFF" d="M69.1,58.8c0.4,0.3,1,0.3,1.3,0c0.4-0.3,0.5-0.8,0.5-1.3c0-0.5,0-1,0.1-1.5
	c0.2-1,1.2-1.7,1.6-2.7c0.1-0.1,0.1-0.3,0-0.5c-0.1-0.1-0.3-0.2-0.4-0.2c-0.2,0-0.3,0.1-0.4,0.2C70.9,53.8,67.2,57.3,69.1,58.8z"/>
<path fill="#FFFFFF" d="M32,35.8c1.2-1.4,1.5-3.5,0.7-5.2c-0.8-1.7-2.7-2.7-4.5-2.6c1.7-1.2,3.9-1.6,5.9-1.2
	c-0.6-1.7-0.5-3.6-0.1-5.3c0.5-1.7,1.3-3.3,2.2-4.9c0,2.8,1.2,5.5,3.2,7.5c0.2-0.7,0.7-1.4,1.3-1.9c-0.1,1.1,0.4,2.3,1.2,3.1
	c0.8,0.7,2,1,2.9,1.6c0.4,0.3,0.8,0.7,0.9,1.1c0.2,0.8-0.2,1.6-0.7,2.3c-2.2,2.9-5.3,5-8.5,6.8c-1,0.6-2.4,1-3.1,0.1
	c-0.5-0.6-0.3-1.5-0.1-2.2L32,35.8z"/>
<g>
	<path fill="#232120" d="M41.6,71c0,0-7.9-4.3-3.4-11.8c4.6-7.6,12.1-2.8,12.1-2.8s-2.6,2.1-5,6.1C42,67.8,41.6,71,41.6,71z"/>
	<path fill="#FFFFFF" d="M42.8,71.6c0,0-7.9-4.3-3.4-11.8c4.6-7.6,12.1-2.8,12.1-2.8s-2.6,2.1-5,6.1C43.2,68.4,42.8,71.6,42.8,71.6z
		"/>
	<path fill="#39B4EA" d="M49.7,58.8c-0.6-0.4-1.2-0.7-1.8-0.9c-1.6-0.3-3.4,0.2-4.6,1.2c-1.4,1.2-2.3,3-2.2,4.9
		c0,1.6,1.1,3.9,2.7,4.7c0.7-1.5,1.4-3.4,3.2-6.3C47.8,61,48.8,59.8,49.7,58.8z"/>
	<g>
		<path fill="#2D90B2" d="M47.8,58c-1.6-0.3-3.4,0.2-4.6,1.2c-0.8,0.7-1.4,1.5-1.8,2.5c0.2-0.3,0.5-0.6,0.8-0.8
			c1.3-1.1,3-1.6,4.6-1.2c0.6,0.1,1.1,0.3,1.6,0.6c0.4-0.6,0.9-1.1,1.3-1.5C49.1,58.4,48.5,58.1,47.8,58z"/>
	</g>
	<path fill="#232120" d="M47.5,61.5C47.5,61.4,47.5,61.4,47.5,61.5c-0.3-0.6-0.8-1-1.3-1.2c-0.5-0.2-1.3-0.2-1.8,0
		c-1.1,0.5-3.3,3.6-0.4,5.3c0.3,0.2,0.6,0.1,1,0c0.5-0.9,1.1-2,1.8-3.1C47,62.2,47.3,61.8,47.5,61.5z"/>
	<path fill="#FFFFFF" d="M42.6,65.9c0.1,0.2,0.3,0.3,0.5,0.4c0.2,0.1,0.4,0.1,0.6-0.1c0.3-0.2,0.2-0.6,0.2-1
		c-0.2-0.7-0.4-1.4-0.9-1.9c-0.1-0.1-0.1-0.1-0.2-0.2c-0.1,0-0.2,0-0.3,0.1C41.4,63.9,42,65.2,42.6,65.9z"/>
	<path fill="#FFFFFF" d="M42.6,62.4c0.1,0,0.1,0,0.2,0c0.4-0.1,0.6-0.5,0.8-0.8c0.1-0.2,0.2-0.5,0.1-0.7c0-0.1-0.1-0.1-0.1-0.1
		c-0.2-0.1-0.4,0-0.5,0.1C42.7,61,42,62.1,42.6,62.4z"/>
</g>
<g>
	<path fill="#232120" d="M84.2,27.9c0,0-5.5-7.1-12.1-1.5c-6.8,5.7-0.8,12.4-0.8,12.4s1.7-2.9,5.3-5.9
		C81.1,28.8,84.2,27.9,84.2,27.9z"/>
	<path fill="#FFFFFF" d="M84.9,29c0,0-5.5-7.1-12.1-1.5c-6.8,5.7-0.8,12.4-0.8,12.4s1.7-2.9,5.3-5.9C81.8,29.9,84.9,29,84.9,29z"/>
	<path fill="#39B4EA" d="M73.4,37.8c-0.5-0.5-0.9-1-1.1-1.7c-0.6-1.5-0.3-3.3,0.5-4.8c0.9-1.6,2.6-2.7,4.5-3c1.5-0.2,4,0.4,5.1,1.9
		c-1.4,0.9-3.2,1.9-5.7,4.2C75.2,35.6,74.2,36.8,73.4,37.8z"/>
	<g>
		<path fill="#2D90B2" d="M72.3,36.1c-0.6-1.5-0.3-3.3,0.5-4.8c0.5-0.9,1.3-1.6,2.2-2.2c-0.3,0.3-0.5,0.6-0.7,0.9
			c-0.8,1.4-1.1,3.2-0.5,4.8c0.2,0.5,0.5,1,0.9,1.5c-0.5,0.5-0.9,1-1.3,1.5C72.9,37.3,72.5,36.7,72.3,36.1z"/>
	</g>
	<path fill="#232120" d="M75.7,35.3C75.6,35.2,75.6,35.2,75.7,35.3c-0.6-0.2-1.1-0.6-1.4-1.1c-0.2-0.5-0.4-1.2-0.3-1.8
		c0.3-1.2,3.1-3.9,5.2-1.2c0.2,0.2,0.2,0.6,0.2,0.9c-0.8,0.6-1.8,1.4-2.8,2.3C76.3,34.7,76,35,75.7,35.3z"/>
	<path fill="#FFFFFF" d="M79.2,29.7c0.2,0.1,0.4,0.2,0.5,0.4c0.1,0.2,0.1,0.4,0,0.6C79.6,31,79.1,31,78.8,31
		c-0.7-0.1-1.5-0.2-2.1-0.6c-0.1-0.1-0.2-0.1-0.2-0.2c0-0.1,0-0.3,0-0.4C77.1,28.9,78.5,29.2,79.2,29.7z"/>
	<path fill="#FFFFFF" d="M75.8,30.2c0,0.1,0,0.1,0,0.2c0,0.4-0.4,0.7-0.7,0.9c-0.2,0.1-0.4,0.2-0.7,0.2c-0.1,0-0.1,0-0.2-0.1
		c-0.1-0.1-0.1-0.4,0.1-0.5C74.5,30.6,75.4,29.7,75.8,30.2z"/>
</g>
<path fill="#3A3734" d="M135.4,106.8c1.9-11,8.9-20.5,15.8-29.2c2.3-2.9,4.6-5.8,7-8.7c1.6-1.9,3.3-4,5.7-4.5
	c2.6-0.6,5.3,0.6,7.1,2.6c1.8,1.9,2.8,4.5,3.6,7c1.7,5.2,2.9,10.5,3.5,16c0.4,3.5,0.5,7.1-0.2,10.6c-1.6,7.3-7.1,13.3-13.7,16.9
	c-5.7,3.1-14.8,6.6-21.4,5.9C135.3,122.5,134.4,112.5,135.4,106.8z"/>
<path fill="#3A3734" d="M148.5,63.9c-0.9-1.1-1.5-2.6-1.2-4c0.3-1.4,1.6-2.6,3.1-2.5c0-1.1,1-1.9,2-2.2c1.6-0.5,3.4-0.3,5.1,0
	c3.5,0.6,7,1.6,10.2,3.1c1.5,0.7,2.9,1.5,3.9,2.8c0.8,1.2,1.2,2.6,1.5,4c0.6,2.6,0.5,6.5,1.5,9.8c0.9,2.8-6.4,1.9-9.4,1.9
	c-3,0-8.3-5.3-8.6-2.3c-0.1,1.4-2.4,1.9-2.1-0.7C154.9,69.3,150.2,65.9,148.5,63.9z"/>
<path fill="#3A3734" d="M70.7,73.7c0,0,11.4-1.6,16-5.7c6.3-5.7,4.7-14.8,4.7-14.8s4.4,11.1-1.6,17.1C82.3,77.7,70.7,73.7,70.7,73.7
	z"/>
<path fill="#EFAC9E" d="M38.9,118.8c0,0.5,0.2,1,0.5,1.5c1.3,1.7,3.6,2.3,5.7,2.3c0.7,0,1.5,0,2.1-0.5c0.2-0.2,0.4-0.4,0.5-0.7
	c0.5-1,0.2-2.3-0.5-3.2c-0.7-0.9-1.8-1.4-2.9-1.6C42.6,116.5,39,116.3,38.9,118.8z"/>
<path fill="#EFAC9E" d="M34.6,122.2c0.4,0.3,0.8,0.5,1.2,0.7c0.5,0.2,1.1,0.3,1.6,0c0.5-0.2,0.8-0.9,0.5-1.4c-0.2-0.3-0.6-0.4-1-0.6
	C35.1,120.3,33.2,121.1,34.6,122.2z"/>
<path fill="#EFAC9E" d="M34.3,117.8c0.5,0.2,1,0.4,1.5,0.4c0.3,0,0.5,0,0.8-0.1c0.2-0.1,0.4-0.3,0.5-0.6c0-0.4-0.3-0.6-0.6-0.8
	c-0.6-0.3-1.8-1-2.5-0.6C33.1,116.7,33.7,117.5,34.3,117.8z"/>
<path fill="#EFAC9E" d="M38.6,114.9c0.4,0.2,0.8,0.3,1.3,0.3c0.4-0.1,0.9-0.4,0.9-0.8c0.2-1.1-1.9-2.1-2.8-1.8
	C36.5,113.1,37.7,114.5,38.6,114.9z"/>
<circle fill="#FEE187" cx="117" cy="15.2" r="14.2"/>
<path fill="#FFC61B" d="M124.5,9.6l-3.7-3.7l-1.5,3.7l-1.1,1.4l-2-2l-1.6,4l-0.9,1.1l1.2,1.2l-0.8,2.6c-0.3-0.3-0.5-0.5-0.5-0.5
	l-1.8-0.3l2,2l-0.1,0.4l0.9,0.9l-0.9,4.5l4.6,4.6c7.2-0.7,12.9-6.8,12.9-14.2c0,0,0,0,0,0l-6.3-6.3L124.5,9.6z"/>
<path fill="#2E821A" d="M119.4,16c0,0,1.2-2.7,6.3-4.9C125.6,11.1,123.2,14.6,119.4,16z"/>
<g>
	<path fill="#2E5E24" d="M120.1,15.2c0,0,0.5-2.9,4.8-6.4C124.9,8.8,123.5,12.8,120.1,15.2z"/>
	<path fill="#2E5E24" d="M114.8,18.6c0,0-0.4-2.2-3.7-4.9C111.1,13.6,112.2,16.7,114.8,18.6z"/>
</g>
<g>
	<path fill="#2E821A" d="M115.3,19.2c0,0-0.9-2.1-4.8-3.8C110.5,15.4,112.3,18.1,115.3,19.2z"/>
	<path fill="#2E821A" d="M120.8,12c-1,0-2,0-3,0c0.4-2,0.4-4.1,0-6.1c1,0,2,0,3,0C120.4,7.9,120.4,9.9,120.8,12z"/>
	<path fill="#2E821A" d="M120.8,24.7c-1,0-2,0-3,0c0.4-2,0.4-4.1,0-6.1c1,0,2,0,3,0C120.4,20.7,120.4,22.7,120.8,24.7z"/>
</g>
<path fill="#6CAF5F" d="M120.8,18.3c-1,0-2,0-3,0c0.4-2,0.4-4.1,0-6.1c1,0,2,0,3,0C120.4,14.3,120.4,16.3,120.8,18.3z"/>
<g>
	<path fill="#2E5E24" d="M120.8,5.9c-0.5,0-0.9,0-1.4,0V12c0.5,0,0.9,0,1.4,0C120.4,9.9,120.4,7.9,120.8,5.9z"/>
	<path fill="#2E5E24" d="M120.8,18.6c-0.5,0-0.9,0-1.4,0v6.1c0.5,0,0.9,0,1.4,0C120.4,22.7,120.4,20.7,120.8,18.6z"/>
</g>
<path fill="#477F3C" d="M120.8,12.2c-0.5,0-0.9,0-1.4,0v6.1c0.5,0,0.9,0,1.4,0C120.4,16.3,120.4,14.3,120.8,12.2z"/>
<g>
	<path fill="#2E821A" d="M116.2,14c-0.8,0-1.7,0-2.5,0c0.3-1.7,0.3-3.4,0-5.1c0.8,0,1.7,0,2.5,0C115.9,10.6,115.9,12.4,116.2,14z"/>
	<path fill="#2E821A" d="M116.2,24.7c-0.8,0-1.7,0-2.5,0c0.3-1.7,0.3-3.4,0-5.1c0.8,0,1.7,0,2.5,0C115.9,21.3,115.9,23,116.2,24.7z"
		/>
</g>
<path fill="#6CAF5F" d="M116.2,19.4c-0.8,0-1.7,0-2.5,0c0.3-1.7,0.3-3.4,0-5.1c0.8,0,1.7,0,2.5,0C115.9,16,115.9,17.7,116.2,19.4z"
	/>
<g>
	<path fill="#2E5E24" d="M116.2,8.9c-0.4,0-0.8,0-1.2,0V14c0.4,0,0.8,0,1.2,0C115.9,12.4,115.9,10.6,116.2,8.9z"/>
	<path fill="#2E5E24" d="M116.2,19.6c-0.4,0-0.8,0-1.2,0v5.1c0.4,0,0.8,0,1.2,0C115.9,23,115.9,21.3,116.2,19.6z"/>
</g>
<path fill="#477F3C" d="M116.2,14.3c-0.4,0-0.8,0-1.2,0v5.1c0.4,0,0.8,0,1.2,0C115.9,17.7,115.9,16,116.2,14.3z"/>
</svg>
