<?xml version="1.0" encoding="utf-8"?>
<!-- Generator: Adobe Illustrator 22.1.0, SVG Export Plug-In . SVG Version: 6.00 Build 0)  -->
<svg version="1.1" id="Layer_1" xmlns:v="https://vecta.io/nano"
	 xmlns="http://www.w3.org/2000/svg" xmlns:xlink="http://www.w3.org/1999/xlink" x="0px" y="0px" viewBox="0 0 202 134"
	 enable-background="new 0 0 202 134" xml:space="preserve">
<g>
	<path fill="#EFAC9E" d="M98.8,27.5c0,0.1,0.1,0.2,0.1,0.3c0,0.1-0.1,0.3-0.2,0.4c-0.3,0.2-0.7,0.3-1,0.1c-0.3-0.1-0.5-0.3-0.6-0.5
		c-0.2-0.2-0.3-0.3-0.4-0.6c-0.1-0.2,0-0.5,0.1-0.6C97.5,26,98.6,26.9,98.8,27.5z"/>
	<path fill="#10B57A" d="M133.5,130.4c0,2-14.4,3.6-32.1,3.6c-17.8,0-32.1-1.6-32.1-3.6c0-2,14.4-3.6,32.1-3.6
		C119.1,126.9,133.5,128.5,133.5,130.4z"/>
	<path fill="#FFFFFF" d="M123.8,71.1l-22.9-3l-22.9,3c0,0-5.5,16.3-5.2,25.5c0.2,9.2,3.5,15.4,11.2,18.6c7.7,3.2,16.9,3.4,16.9,3.4
		s9.2-0.2,16.9-3.4c7.7-3.2,10.9-9.4,11.2-18.6C129.2,87.4,123.8,71.1,123.8,71.1z"/>
	<path fill="#FFF3E3" d="M123.8,71.1l-7.4-1c1.6,5.4,4.1,15.1,4,21.4c-0.2,9.2-3.5,15.4-11.2,18.6c-7.7,3.2-16.9,3.4-16.9,3.4
		s-7.3-0.2-14.4-2.5c1.6,1.7,3.7,3.1,6.2,4.1c7.7,3.2,16.9,3.4,16.9,3.4s9.2-0.2,16.9-3.4c7.7-3.2,10.9-9.4,11.2-18.6
		C129.2,87.4,123.8,71.1,123.8,71.1z"/>
	<path fill="#3A3734" d="M127.6,85.5c0-7.4-3.9-14.4-3.9-14.4l-22.9-3l-22.9,3c0,0-3.6,7.9-4.2,16c3.7-3.6,8.4-6.4,13.4-8.1
		c6.2-2,12.9-2.4,19.4-1.9C122.9,78.3,127.5,85.4,127.6,85.5z"/>
	<g>
		<path fill="#3A3734" d="M62.4,39.2c0,0-21.2-8.9-9-24.8c10.7-14.1,24.8,1.8,24.8,1.8L62.4,39.2z"/>
		<path fill="#EFAC9E" d="M63.9,32.5c0,0-11.8-5-5-13.9c6-7.9,13.9,1,13.9,1L63.9,32.5z"/>
		<path fill="#232120" d="M51.6,17.2c10.3-13.5,23.7,0.5,24.8,1.7l1.8-2.7c0,0-14.1-15.9-24.8-1.8c-0.8,1-1.4,2.1-2,3
			C51.4,17.3,51.5,17.3,51.6,17.2z"/>
		<path opacity="0.22" fill="#FFFFFF" d="M51.1,24.1c0,1.5,0.3,3.1,1.1,4.3c0.4,0.6,1,1.1,1.6,1.1c0.6-0.1,1.1-0.7,1.2-1.3
			c0.1-0.6-0.1-1.3-0.4-1.8c-0.3-0.6-0.6-1.1-0.9-1.6c-0.7-1.4-0.9-3-0.6-4.6c0.1-0.3,0.1-0.7-0.1-0.9
			C51.8,18.2,51.1,23.5,51.1,24.1z"/>
	</g>
	<g>
		<path fill="#3A3734" d="M124.6,18.5c0,0,12.1-19.6,26-5c12.2,12.8-5.7,24.3-5.7,24.3L124.6,18.5z"/>
		<path fill="#EFAC9E" d="M131,21.1c0,0,6.8-10.9,14.5-2.8c6.8,7.2-3.2,13.5-3.2,13.5L131,21.1z"/>
		<path fill="#232120" d="M148.1,11.3c11.7,12.3-4.2,23.3-5.6,24.2l2.3,2.2c0,0,17.9-11.4,5.7-24.3c-0.9-0.9-1.8-1.8-2.7-2.4
			C147.9,11.1,148,11.2,148.1,11.3z"/>
		<path opacity="0.22" fill="#FFFFFF" d="M141.4,9.7c-1.5-0.3-3.1-0.2-4.4,0.4c-0.6,0.3-1.3,0.8-1.3,1.5c0,0.6,0.5,1.2,1.1,1.4
			c0.6,0.2,1.3,0.1,1.9-0.1c0.6-0.2,1.2-0.5,1.8-0.7c1.5-0.5,3.1-0.4,4.6,0.1c0.3,0.1,0.7,0.2,0.9,0C147,11.3,141.9,9.8,141.4,9.7z"
			/>
	</g>
	<path fill="#FFFFFF" d="M146.1,41.3c-0.8-9.5-7-21.7-18.8-28.3c-10.9-6.1-37.7-6.6-50.6,0c-10.7,5.5-17.3,18.5-18.1,28
		c-0.8,9.5,1.7,26,15.4,29.6c13.8,3.6,42.2,3.6,55.9,0C143.7,67.1,146.9,50.8,146.1,41.3z"/>
	<path fill="#FFF3E3" d="M146.2,41.3c-0.8-9.1-6.6-20.7-17.4-27.4c5.5,6.3,8.5,13.9,9.1,20.3c0.8,9.5-2.4,25.7-16.2,29.3
		c-13.8,3.6-42.2,3.6-55.9,0c-0.9-0.2-1.7-0.5-2.5-0.8c2.4,3.7,5.9,6.7,10.8,7.9c13.8,3.6,42.2,3.6,55.9,0
		C143.8,67.1,147,50.8,146.2,41.3z"/>
	<path fill="#3A3734" d="M76.9,22.3c-2.7,1.8-5,4.2-7.1,6.8c-2.6,3.2-5.1,6.8-5.7,10.9c-0.1,0.7-0.4,4,3,6.8
		c1.4,1.1,3.2,1.7,5.1,1.7c9.1,0,12.6-5.4,13.4-6.7c2.5-4,4.1-8.5,6.7-12.4c0.8-1.2,1.5-2.5,1.8-3.9c0.4-2.6-2.5-8-10.5-6
		C81.2,20,78.9,20.9,76.9,22.3z"/>
	<path fill="#3A3734" d="M127.3,22.3c2.7,1.8,5,4.2,7.1,6.7c2.6,3.2,5.1,6.8,5.7,10.9c0.1,0.7,0.4,4-3,6.8c-1.4,1.1-3.2,1.7-5.1,1.7
		c-9.1,0-12.6-5.4-13.4-6.6c-2.5-4-4.1-8.5-6.8-12.4c-0.8-1.2-1.5-2.5-1.8-3.9c-0.4-2.6,2.4-8,10.5-6C123,20,125.3,20.9,127.3,22.3z
		"/>
	<path fill="#3A3734" d="M107.7,33.9c-2.1-0.7-5.6-1-6.1-0.9c-0.5-0.1-4,0.1-6.1,0.9c-1.1,0.4-2,1.4-2,2.5c0,1.7,1.2,2,1.9,2.3
		c1.6,0.6,3.3,0.9,4.5,1.9c0.3,0.3,0.6,0.6,0.9,0.8c0.2,0.1,0.5,0.2,0.8,0.2c0.3,0,0.6-0.1,0.8-0.2c0.4-0.2,0.6-0.5,0.9-0.8
		c1.2-1,2.9-1.3,4.5-1.9c0.7-0.3,1.9-0.6,1.9-2.3C109.7,35.3,108.9,34.3,107.7,33.9z"/>
	<path opacity="0.22" fill="#FFFFFF" d="M94.9,35.9c0.1,0.4,0.5,0.7,1,0.8c0.5,0,1-0.2,1.3-0.5c0.4-0.3,0.7-0.6,1.1-0.8
		c0.9-0.5,2.1-0.3,3.1-0.6c0.2,0,0.3-0.1,0.4-0.3c0-0.1-0.1-0.3-0.2-0.3c-0.1-0.1-0.3-0.1-0.5-0.1C99.8,34,94.6,34,94.9,35.9z"/>
	<path fill="#FFFFFF" d="M94,11.8c1.4-0.5,2.4-1.9,2.5-3.4c0.1-1.5-0.8-2.9-2.2-3.6c1.6-0.2,3.3,0.4,4.6,1.4c0.2-1.4,1-2.7,2-3.7
		c1-1,2.2-1.8,3.4-2.6c-1.1,1.9-1.3,4.3-0.7,6.4c0.4-0.4,1-0.7,1.6-0.8c-0.5,0.8-0.6,1.8-0.3,2.6c0.3,0.8,1,1.4,1.4,2.2
		c0.2,0.4,0.3,0.8,0.2,1.1c-0.1,0.6-0.8,1-1.4,1.3c-2.6,1.2-5.6,1.5-8.5,1.5c-0.9,0-2.1-0.2-2.2-1.1c-0.1-0.6,0.3-1.2,0.8-1.6
		L94,11.8z"/>
	<g>
		<path fill="#3A3734" d="M79.9,122.4c0.7,1.3,1.4,2.6,2.3,3.8c0.9,1.2,2.1,2.2,3.5,2.6c1.4,0.5,2.9,0.5,4.4,0.3
			c0.7-0.1,1.4-0.2,2-0.6c0.4-0.3,0.7-0.7,0.9-1.2c1.2-2.3,1.3-4.9,1.5-7.5c0.1-1.6-0.6-3.1-3.2-4c-1.6-0.5-7.3-3.7-9.8-7.5
			c-0.8-1.2-1.8-2.3-2.6-3.5c-0.7-1-5.6-4.8-5.7-3.1C73.1,104.8,79.2,121.1,79.9,122.4z"/>
		<path fill="#3A3734" d="M78.6,126.2c-0.6,0.6-1,1.5-0.9,2.3c0.1,0.9,0.8,1.7,1.7,1.7c0,0.6,0.5,1.2,1.1,1.4c0.9,0.4,2,0.4,3,0.3
			c2.1-0.2,4.3-0.5,6.3-1.3c0.9-0.3,1.8-0.8,2.5-1.5c0.6-0.6,0.9-1.5,1.1-2.3c0.5-1.5,0.8-3.2,0.2-4.7c-0.7-1.7-2.5-2.6-4.3-2.8
			c-1.8-0.2-3.6,0.3-5.3,0.9c-1.5,0.5-2.6,1.1-3,2.7C80.6,124.6,79.7,125.1,78.6,126.2z"/>
	</g>
	<g>
		<path fill="#3A3734" d="M121.8,122.4c-0.7,1.3-1.4,2.6-2.3,3.8c-0.9,1.2-2.1,2.2-3.5,2.7c-1.4,0.5-2.9,0.5-4.4,0.3
			c-0.7-0.1-1.4-0.2-2-0.6c-0.4-0.3-0.7-0.7-0.9-1.2c-1.2-2.3-1.4-4.9-1.5-7.5c-0.1-1.6,0.6-3.1,3.2-4c1.6-0.5,7.3-3.7,9.8-7.5
			c0.8-1.2,1.8-2.3,2.6-3.5c0.7-1,5.6-4.8,5.7-3.2C128.5,104.8,122.5,121.1,121.8,122.4z"/>
		<path fill="#3A3734" d="M123.1,126.2c0.6,0.6,1,1.5,0.9,2.3c-0.1,0.9-0.8,1.7-1.7,1.7c0.1,0.6-0.5,1.2-1.1,1.4
			c-0.9,0.4-2,0.4-3,0.3c-2.1-0.2-4.3-0.5-6.3-1.2c-0.9-0.3-1.8-0.7-2.5-1.5c-0.6-0.6-0.9-1.5-1.1-2.3c-0.5-1.5-0.9-3.2-0.2-4.7
			c0.7-1.7,2.5-2.6,4.3-2.8c1.8-0.2,3.6,0.3,5.3,0.9c1.5,0.5,2.6,1.1,3,2.7C121.1,124.6,122,125.1,123.1,126.2z"/>
	</g>
	<g>
		<path fill="#232120" d="M71.9,33.7c0,0-1.6-8.8,7-10c8.7-1.2,9.7,7.6,9.7,7.6s-3.2-0.7-7.9-0.1C74.6,32.1,71.9,33.7,71.9,33.7z"/>
		<path fill="#FFFFFF" d="M72.2,35c0,0-1.6-8.8,7-10c8.7-1.2,9.7,7.6,9.7,7.6s-3.2-0.7-7.9-0.1C75,33.4,72.2,35,72.2,35z"/>
		<path fill="#39B4EA" d="M86.4,32.3c0-0.7-0.2-1.4-0.5-2c-0.8-1.5-2.2-2.5-3.8-2.8c-1.8-0.4-3.8,0.1-5.2,1.3c-1.2,1-2.3,3.2-2,5
			c1.6-0.4,3.5-1.1,6.8-1.4C83.6,32.3,85.1,32.3,86.4,32.3z"/>
		<g>
			<path fill="#2D90B2" d="M85.9,30.4c-0.8-1.5-2.2-2.5-3.8-2.8c-1-0.2-2.1-0.1-3,0.2c0.4,0,0.8,0,1.1,0.1c1.6,0.3,3.1,1.3,3.8,2.8
				c0.3,0.5,0.4,1.1,0.5,1.6c0.7,0,1.4,0,2,0.1C86.4,31.7,86.2,31,85.9,30.4z"/>
		</g>
		<path fill="#232120" d="M83,32.4C83,32.3,83,32.3,83,32.4c0.3-0.6,0.3-1.2,0.1-1.7c-0.2-0.5-0.6-1.1-1.1-1.4
			c-1.1-0.6-4.9-0.3-4.4,3c0,0.3,0.4,0.5,0.6,0.7c1-0.2,2.2-0.4,3.5-0.5C82.2,32.4,82.6,32.4,83,32.4z"/>
		<path fill="#FFFFFF" d="M76.5,31.3c0,0.2-0.1,0.4,0,0.6c0.1,0.2,0.2,0.4,0.4,0.4c0.3,0.1,0.6-0.2,0.8-0.5c0.4-0.6,0.8-1.2,0.9-1.9
			c0-0.1,0-0.2,0-0.3c-0.1-0.1-0.2-0.2-0.3-0.2C77.3,29.2,76.7,30.4,76.5,31.3z"/>
		<path fill="#FFFFFF" d="M79.2,29.1c0,0.1,0.1,0.1,0.1,0.2c0.3,0.2,0.7,0.2,1.1,0.1c0.2-0.1,0.5-0.2,0.6-0.4c0-0.1,0-0.1,0-0.2
			c0-0.2-0.2-0.3-0.4-0.3C80.4,28.4,79,28.5,79.2,29.1z"/>
	</g>
	<g>
		<path fill="#232120" d="M132.5,32.7c0,0,0.6-8.9-8.1-9.1c-8.8-0.2-8.8,8.7-8.8,8.7s3.1-1,7.8-1C129.7,31.4,132.5,32.7,132.5,32.7z
			"/>
		<path fill="#FFFFFF" d="M132.4,34c0,0,0.6-8.9-8.1-9.1c-8.8-0.2-8.8,8.7-8.8,8.7s3.1-1,7.8-1C129.5,32.7,132.4,34,132.4,34z"/>
		<path fill="#39B4EA" d="M118,33c0-0.7,0-1.4,0.3-2c0.6-1.5,1.9-2.7,3.5-3.2c1.7-0.6,3.7-0.3,5.3,0.7c1.3,0.9,2.7,3,2.5,4.7
			c-1.6-0.2-3.6-0.7-7-0.6C120.8,32.6,119.3,32.8,118,33z"/>
		<g>
			<path fill="#2D90B2" d="M118.3,31c0.6-1.5,1.9-2.7,3.5-3.2c1-0.3,2-0.4,3-0.2c-0.4,0-0.8,0.1-1.1,0.2c-1.6,0.5-2.9,1.7-3.5,3.2
				c-0.2,0.5-0.3,1.1-0.3,1.7c-0.7,0.1-1.4,0.2-1.9,0.3C117.9,32.3,118,31.6,118.3,31z"/>
		</g>
		<path fill="#232120" d="M121.4,32.6C121.4,32.6,121.3,32.6,121.4,32.6c-0.4-0.6-0.4-1.2-0.3-1.7c0.2-0.5,0.5-1.2,0.9-1.5
			c1-0.7,4.8-0.9,4.7,2.5c0,0.3-0.3,0.6-0.5,0.8c-1-0.1-2.2-0.1-3.6-0.1C122.2,32.6,121.8,32.6,121.4,32.6z"/>
		<path fill="#FFFFFF" d="M127.7,30.8c0.1,0.2,0.1,0.4,0.1,0.6c0,0.2-0.2,0.4-0.4,0.5c-0.3,0.1-0.7-0.1-0.9-0.4
			c-0.5-0.5-0.9-1.1-1.1-1.8c0-0.1,0-0.2,0-0.3c0-0.1,0.2-0.2,0.3-0.2C126.6,28.8,127.5,30,127.7,30.8z"/>
		<path fill="#FFFFFF" d="M124.8,28.9c0,0.1-0.1,0.1-0.1,0.2c-0.3,0.3-0.7,0.3-1.1,0.2c-0.2,0-0.5-0.1-0.6-0.3
			c0-0.1-0.1-0.1-0.1-0.2c0-0.2,0.2-0.3,0.4-0.4C123.5,28.4,124.9,28.3,124.8,28.9z"/>
	</g>
	<g>
		<circle fill="#FEE187" cx="100.9" cy="91.6" r="23.5"/>
		<path fill="#FFC61B" d="M113.4,82.4l-6.2-6.2l-2.5,6.1l-1.7,2.3l-3.3-3.3l-2.6,6.6l-1.5,1.8l2,2L96.4,96c-0.5-0.5-0.9-0.9-0.9-0.9
			l-3-0.5l3.3,3.3l-0.2,0.7L97,100l-1.5,7.4l7.6,7.6c11.9-1.1,21.2-11.2,21.2-23.4c0,0,0,0,0-0.1L114,81.1L113.4,82.4z"/>
		<path fill="#2E821A" d="M104.9,93c0,0,2-4.4,10.3-8.1C115.2,84.9,111.2,90.7,104.9,93z"/>
		<g>
			<path fill="#2E5E24" d="M106.1,91.6c0,0,0.8-4.8,7.9-10.5C114,81.1,111.6,87.7,106.1,91.6z"/>
			<path fill="#2E5E24" d="M97.3,97.1c0,0-0.6-3.7-6.1-8.1C91.2,89,93,94.1,97.3,97.1z"/>
		</g>
		<g>
			<path fill="#2E821A" d="M98.2,98.2c0,0-1.5-3.4-8-6.3C90.2,92,93.3,96.4,98.2,98.2z"/>
			<path fill="#2E821A" d="M107.2,86.3c-1.6,0-3.3,0-4.9,0c0.6-3.3,0.6-6.7,0-10c1.6,0,3.3,0,4.9,0
				C106.6,79.5,106.6,82.9,107.2,86.3z"/>
			<path fill="#2E821A" d="M107.2,107.3c-1.6,0-3.3,0-4.9,0c0.6-3.3,0.6-6.7,0-10c1.6,0,3.3,0,4.9,0
				C106.6,100.6,106.6,104,107.2,107.3z"/>
		</g>
		<path fill="#6CAF5F" d="M107.2,96.8c-1.6,0-3.3,0-4.9,0c0.6-3.3,0.6-6.7,0-10c1.6,0,3.3,0,4.9,0C106.6,90.1,106.6,93.5,107.2,96.8
			z"/>
		<g>
			<path fill="#2E5E24" d="M107.2,76.2c-0.8,0-1.6,0-2.3,0v10c0.8,0,1.6,0,2.3,0C106.6,82.9,106.6,79.5,107.2,76.2z"/>
			<path fill="#2E5E24" d="M107.2,97.3c-0.8,0-1.6,0-2.3,0v10c0.8,0,1.6,0,2.3,0C106.6,104,106.6,100.6,107.2,97.3z"/>
		</g>
		<path fill="#477F3C" d="M107.2,86.7c-0.8,0-1.6,0-2.3,0v10c0.8,0,1.6,0,2.3,0C106.6,93.5,106.6,90.1,107.2,86.7z"/>
		<g>
			<path fill="#2E821A" d="M99.7,89.7c-1.4,0-2.8,0-4.1,0c0.5-2.8,0.5-5.6,0-8.4c1.4,0,2.8,0,4.1,0C99.2,84.1,99.2,86.9,99.7,89.7z"
				/>
			<path fill="#2E821A" d="M99.7,107.3c-1.4,0-2.8,0-4.1,0c0.5-2.8,0.5-5.6,0-8.4c1.4,0,2.8,0,4.1,0
				C99.2,101.7,99.2,104.5,99.7,107.3z"/>
		</g>
		<path fill="#6CAF5F" d="M99.7,98.5c-1.4,0-2.8,0-4.1,0c0.5-2.8,0.5-5.6,0-8.4c1.4,0,2.8,0,4.1,0C99.2,92.9,99.2,95.7,99.7,98.5z"
			/>
		<g>
			<path fill="#2E5E24" d="M99.7,81.3c-0.7,0-1.3,0-2,0v8.4c0.7,0,1.3,0,2,0C99.2,86.9,99.2,84.1,99.7,81.3z"/>
			<path fill="#2E5E24" d="M99.7,98.9c-0.7,0-1.3,0-2,0v8.4c0.7,0,1.3,0,2,0C99.2,104.5,99.2,101.7,99.7,98.9z"/>
		</g>
		<path fill="#477F3C" d="M99.7,90.1c-0.7,0-1.3,0-2,0v8.4c0.7,0,1.3,0,2,0C99.2,95.7,99.2,92.9,99.7,90.1z"/>
	</g>
	<path fill="#232120" d="M68.4,87.5c-0.5,2.4-0.7,4.9,0.2,7.1c1,2.5,3.3,4.3,5.8,5.2c2.5,1,5.2,1.2,7.9,1.3c1.9,0.1,3.8,0.2,5.5-0.6
		c0.4-0.2,0.7-0.4,0.9-0.8c0.1-0.4-0.1-0.9-0.5-0.9c0.9-0.5,1.8-1.2,2-2.1c0.2-1-0.8-2.2-1.7-1.8c0.4-0.1,0.4-0.8,0.1-1.1
		c-0.3-0.3-0.8-0.3-1.3-0.4c-3-0.3-7-1.7-9-3.9c-5.2-5.6-3.2-10.2-0.6-18.1C73.1,76.2,69.8,81.1,68.4,87.5z"/>
	<path fill="#232120" d="M132.8,88.2c0.4,2.4,0.5,4.9-0.5,7.1c-1.1,2.4-3.5,4.1-6.1,4.9c-2.6,0.8-5.3,0.9-8,0.9
		c-1.9,0-3.8,0-5.5-0.9c-0.4-0.2-0.7-0.4-0.8-0.8c-0.1-0.4,0.1-0.9,0.5-0.9c-0.9-0.5-1.7-1.2-1.9-2.2c-0.1-1,0.9-2.1,1.8-1.7
		c-0.4-0.1-0.4-0.8,0-1.1c0.4-0.3,0.9-0.3,1.3-0.3c3-0.1,7.1-1.3,9.2-3.4c6.6-6.5,3.5-11.3,1.3-17.9
		C128.5,76.8,131.8,81.6,132.8,88.2z"/>
	<path fill="#3A3734" d="M93.5,49.4c0,0,3.6,2.7,8.1,2.9c4.7,0.2,8.5-3.4,8.5-3.4s-0.4,11.9-7.8,12.2C94.9,61.3,93.5,49.4,93.5,49.4
		z"/>
	<path fill="#EFAC9E" d="M103,56.2c-1-0.6-2.3-0.5-3.3,0c-1,0.5-1.7,1.5-2.1,2.6c0,0.1-0.1,0.2-0.1,0.2c1.2,1.2,2.8,2.1,4.8,2
		c3-0.1,4.9-2.2,6-4.6c-0.4-0.4-0.9-0.7-1.4-0.9C105.6,55,104,55.3,103,56.2z"/>
	<path opacity="0.22" fill="#FFFFFF" d="M76.9,83.7c0.1,0.4,0.4,0.8,0.7,1c0.6,0.3,1.3,0.1,1.8-0.3c0.5-0.4,0.9-0.9,1.3-1.4
		c1.2-1.4,2.7-2.4,4.4-3c0.4-0.1,0.8-0.3,0.9-0.6c0.1-0.3-0.2-0.6-0.4-0.7c-0.3-0.1-0.5-0.1-0.8-0.1c-1.7,0-3.5,0.3-5.1,0.9
		c-0.5,0.2-1,0.4-1.5,0.7C77.1,80.9,76.5,82.4,76.9,83.7z"/>
	<path opacity="0.22" fill="#FFFFFF" d="M88.2,79.7c0.1,0.2,0.3,0.4,0.5,0.5c0.2,0.2,0.5,0.4,0.7,0.6c0.6,0.4,1.3,0.5,2,0.6
		c0.5,0,1,0,1.3-0.3c0.4-0.3,0.4-0.9,0.2-1.3c-0.2-0.4-0.6-0.7-1-1c-0.7-0.4-1.5-0.6-2.3-0.6C88.9,78.2,87.7,78.8,88.2,79.7z"/>
</g>
</svg>
