<?xml version="1.0" encoding="utf-8"?>
<!-- Generator: Adobe Illustrator 22.1.0, SVG Export Plug-In . SVG Version: 6.00 Build 0)  -->
<svg version="1.1" id="Layer_1" xmlns:v="https://vecta.io/nano"
	 xmlns="http://www.w3.org/2000/svg" xmlns:xlink="http://www.w3.org/1999/xlink" x="0px" y="0px" viewBox="0 0 202 134"
	 enable-background="new 0 0 202 134" xml:space="preserve">
<g>
	<ellipse fill="#10B57A" cx="102.8" cy="126.9" rx="55.6" ry="5.6"/>
	<path fill="#3A3734" d="M142.9,59.8c0.6-0.9,1.3-2,2.4-1.8c0.6,0.2,0.6,0.8,0.6,1.3c0.1-1.1,1-2.3,2.2-2.3c1.1,0,2.1,1.5,1.4,2.4
		c0.4-0.3,0.9-0.1,1.2,0.3c0.3,0.4,0.3,0.9,0.3,1.4c-0.1,5.4-2.6,11.6-6.4,15.4c-5.8,5.8-12.6,12.4-20.7,11
		c-2.6-0.5-7.2-5.7-8.6-7.9c-1.6-2.6-1-6.1,0.8-8.6c1.9-2.5,4.4-3.2,7.1-1.6c2.3,1.4,3.7,1.1,6.3,0.3C135,68,139.8,64.5,142.9,59.8z
		"/>
	<path fill="#FFFFFF" d="M126.7,73.5L103,70.4l-23.7,3.1c0,0-5.7,16.9-5.4,26.4c0.3,9.5,3.6,16,11.6,19.3c8,3.3,17.5,3.6,17.5,3.6
		s9.5-0.2,17.5-3.6c8-3.3,11.3-9.8,11.6-19.3C132.4,90.4,126.7,73.5,126.7,73.5z"/>
	<path fill="#FFF3E3" d="M126.7,73.5l-7.7-1c1.7,5.6,4.3,15.7,4.1,22.2c-0.3,9.5-3.6,16-11.6,19.3c-8,3.3-17.5,3.6-17.5,3.6
		s-7.6-0.2-14.9-2.6c1.7,1.8,3.8,3.2,6.4,4.3c8,3.3,17.5,3.6,17.5,3.6s9.5-0.2,17.5-3.6c8-3.3,11.3-9.8,11.6-19.3
		C132.4,90.4,126.7,73.5,126.7,73.5z"/>
	<path fill="#3A3734" d="M130.8,88.4c0-7.7-4.1-15.9-4.1-15.9L103,70.4l-23.7,3.1c0,0-3.7,8.2-4.4,16.6c3.8-3.7,8.7-6.7,13.9-8.4
		c6.4-2.1,13.3-2.5,20.1-2C125.8,80.9,130.6,88.2,130.8,88.4z"/>
	<g>
		<g>
			<path fill="#3A3734" d="M55.4,48.4c0,0-23.2-5.7-13.3-24c8.7-16.1,25.7-2.2,25.7-2.2L55.4,48.4z"/>
			<path fill="#EFAC9E" d="M56,41.2c0,0-12.9-3.2-7.4-13.4c4.9-9,14.4-1.2,14.4-1.2L56,41.2z"/>
			<path fill="#232120" d="M40.8,27.5c8.4-15.5,24.3-3.3,25.6-2.2l1.4-3c0,0-17-14-25.7,2.2c-0.6,1.2-1.1,2.3-1.5,3.4
				C40.7,27.7,40.8,27.6,40.8,27.5z"/>
			<path opacity="0.22" fill="#FFFFFF" d="M41.4,34.7c0.2,1.6,0.8,3.1,1.9,4.2c0.5,0.5,1.2,1,1.9,0.8c0.6-0.2,1-0.8,1-1.5
				c0-0.7-0.3-1.3-0.7-1.8c-0.4-0.5-0.8-1-1.2-1.5c-1-1.3-1.4-3-1.3-4.6c0-0.3,0-0.7-0.3-0.9C41.2,28.5,41.4,34.1,41.4,34.7z"/>
		</g>
		<g>
			<path fill="#3A3734" d="M115.8,17c0,0,9.2-22,25.8-9.3c14.6,11.1-1.9,25.7-1.9,25.7L115.8,17z"/>
			<path fill="#EFAC9E" d="M122.8,18.7c0,0,5.1-12.3,14.4-5.2c8.1,6.2-1.1,14.4-1.1,14.4L122.8,18.7z"/>
			<path fill="#232120" d="M138.7,5.9c14,10.7-0.6,24.5-1.8,25.7l2.8,1.9c0,0,16.5-14.6,1.9-25.7c-1.1-0.8-2.1-1.5-3.1-2
				C138.5,5.7,138.6,5.8,138.7,5.9z"/>
			<path opacity="0.22" fill="#FFFFFF" d="M131.6,5.3c-1.6,0-3.2,0.3-4.5,1.2c-0.6,0.4-1.2,1-1.1,1.7c0.1,0.6,0.7,1.1,1.3,1.2
				c0.6,0.1,1.3-0.1,1.9-0.4c0.6-0.3,1.1-0.7,1.7-1c1.4-0.7,3.2-1,4.7-0.6c0.3,0.1,0.7,0.1,0.9-0.1C137.6,6.1,132.1,5.4,131.6,5.3z"
				/>
		</g>
		<path fill="#FFFFFF" d="M141.5,37c-2.4-9.5-10.7-21.1-23.8-25.9c-12.1-4.5-39.6-0.7-51.8,8.2c-10.1,7.4-14.7,21.7-14,31.6
			c0.7,9.8,5.9,26.4,20.6,27.8c14.7,1.5,43.7-3.1,57.3-9C143.2,63.7,143.9,46.5,141.5,37z"/>
		<path fill="#FFF3E3" d="M141.6,37c-2.3-9.2-10.1-20.1-22.2-25.3c6.7,5.6,11,12.9,12.6,19.3c2.4,9.5,1.7,26.7-11.8,32.7
			c-13.5,5.9-42.6,10.5-57.3,9c-0.9-0.1-1.8-0.3-2.7-0.5c3.1,3.4,7.1,5.9,12.4,6.4c14.7,1.5,43.7-3.1,57.3-9
			C143.3,63.7,144,46.5,141.6,37z"/>
		<path fill="#3A3734" d="M68.5,30.1c-2.5,2.3-4.4,5.1-6.2,8.1c-2.2,3.7-4.1,7.8-4,12.1c0,0.8,0.2,4.2,4.1,6.5
			c1.6,0.9,3.6,1.2,5.4,0.9c9.3-1.5,12-7.5,12.7-9c1.9-4.5,2.8-9.3,4.9-13.8c0.6-1.4,1.2-2.8,1.2-4.3c0-2.7-3.8-7.8-11.7-4.5
			C72.5,27.1,70.3,28.4,68.5,30.1z"/>
		<path fill="#3A3734" d="M116.5,22.5c3.1,1.4,5.8,3.5,8.4,5.8c3.2,2.8,6.3,6.1,7.6,10.2c0.2,0.7,1.1,4-1.9,7.4
			c-1.3,1.4-3,2.2-4.9,2.5c-9.3,1.5-13.8-3.4-14.8-4.6c-3.2-3.7-5.6-8-8.9-11.6c-1-1.1-2-2.3-2.4-3.7c-0.8-2.6,1.2-8.6,9.8-7.9
			C111.7,20.9,114.2,21.4,116.5,22.5z"/>
		<path fill="#3A3734" d="M101.4,39.7c-2.3-0.6-5.9-0.3-6.4-0.1c-0.5-0.1-4.1,0.8-6.1,2c-1.1,0.7-1.7,2.1-1.6,3.3
			c0.3,2,1.6,2.3,2.4,2.5c1.7,0.4,3.6,0.6,5,1.6c0.4,0.3,0.7,0.6,1.1,0.8C96,50,96.3,50,96.6,50c0.3,0,0.6-0.2,0.8-0.4
			c0.3-0.3,0.5-0.7,0.8-1.1c1-1.4,2.8-2.1,4.2-3.1c0.7-0.4,1.8-1.1,1.5-3.1C103.7,41.1,102.6,40,101.4,39.7z"/>
		<path opacity="0.22" fill="#FFFFFF" d="M88.7,44.1c0.1,0.5,0.6,0.8,1.1,0.8c0.5,0,0.9-0.4,1.3-0.8c0.3-0.4,0.6-0.8,1-1.2
			c0.8-0.7,2.1-0.7,3.1-1.3c0.1-0.1,0.3-0.2,0.3-0.4c0-0.2-0.1-0.3-0.3-0.4c-0.2-0.1-0.3-0.1-0.5,0C93.3,41,87.9,41.8,88.7,44.1z"/>
		<g>
			<g>
				<path fill="#232120" d="M80.1,36c0.5,3.5-1.8,6.7-5.3,7.3c-3.5,0.5-6.7-1.8-7.3-5.3c-0.5-3.5,1.8-6.7,5.3-7.3
					C76.3,30.1,79.5,32.5,80.1,36z"/>
				<path fill="#FFFFFF" d="M80.2,36.6c0.5,3.5-1.8,6.7-5.3,7.3c-3.5,0.5-6.7-1.8-7.3-5.3c-0.5-3.5,1.8-6.7,5.3-7.3
					C76.4,30.8,79.6,33.2,80.2,36.6z"/>
				<path fill="#E3FFFE" d="M78.1,32.9c0.6,0.8,1,1.7,1.1,2.7c0.5,3.5-1.8,6.7-5.3,7.3c-1.9,0.3-3.8-0.3-5.2-1.5
					c1.4,1.9,3.7,2.9,6.1,2.6c3.5-0.5,5.8-3.8,5.3-7.3C80,35.1,79.2,33.8,78.1,32.9z"/>
				<path fill="#39B4EA" d="M77.9,37.3c0.4,2.3-1.2,4.4-3.4,4.7c-2.3,0.4-4.4-1.2-4.7-3.4c-0.4-2.3,1.2-4.4,3.4-4.7
					C75.4,33.5,77.5,35,77.9,37.3z"/>
				<path fill="#2D90B2" d="M74.8,33.9c0.8,0.6,1.3,1.5,1.5,2.6c0.4,2.3-1.2,4.4-3.4,4.7c-0.6,0.1-1.1,0.1-1.7-0.1
					c0.9,0.7,2,1,3.2,0.8c2.3-0.4,3.8-2.5,3.4-4.7C77.6,35.6,76.3,34.3,74.8,33.9z"/>
				<path fill="#232120" d="M76.4,37.5c0.2,1.4-0.7,2.7-2.1,2.9c-1.4,0.2-2.7-0.7-2.9-2.1c-0.2-1.4,0.7-2.7,2.1-2.9
					C74.9,35.2,76.2,36.1,76.4,37.5z"/>
				<path fill="#FFFFFF" d="M70.3,38.1c0,0.2,0.1,0.4,0.2,0.6c0.1,0.2,0.3,0.3,0.5,0.4c0.2,0,0.4,0,0.6-0.2c0.2-0.1,0.3-0.3,0.4-0.5
					c0.3-0.6,0.6-1.4,0.5-2.1c0-0.2-0.1-0.4-0.2-0.5c-0.1-0.1-0.2-0.1-0.3-0.1C70.8,35.7,70.1,37,70.3,38.1z"/>
				<g>
					<path fill="#288199" d="M73.8,42.3c-2.1,0-3.9-1.5-4.3-3.6c-0.4-2.4,1.2-4.6,3.6-4.9c0.2,0,0.5-0.1,0.7-0.1
						c2.1,0,3.9,1.5,4.3,3.6c0.4,2.4-1.2,4.6-3.6,4.9C74.2,42.2,74,42.3,73.8,42.3z M73.8,34c-0.2,0-0.4,0-0.6,0
						c-2.2,0.3-3.6,2.4-3.3,4.5c0.3,1.9,2,3.4,3.9,3.4c0.2,0,0.4,0,0.6,0c1-0.2,2-0.7,2.6-1.6c0.6-0.9,0.9-1.9,0.7-3
						C77.4,35.4,75.7,34,73.8,34z"/>
				</g>
			</g>
			<path fill="#FFFFFF" d="M72.7,34.6c-0.1,0-0.2,0.1-0.2,0.2c-0.1,0.1-0.1,0.2,0,0.3c0.1,0.1,0.2,0.2,0.4,0.2
				c0.2,0,0.5-0.1,0.6-0.2c0.1-0.1,0.2-0.1,0.3-0.2c0.1-0.1,0.1-0.2,0-0.3c0,0-0.1-0.1-0.2-0.1C73.3,34.4,73,34.4,72.7,34.6
				L72.7,34.6z"/>
		</g>
		<g>
			<g>
				<path fill="#232120" d="M119.2,29.5c0.5,3.5-1.8,6.7-5.3,7.3c-3.5,0.5-6.7-1.8-7.3-5.3c-0.5-3.5,1.8-6.7,5.3-7.3
					C115.4,23.6,118.7,26,119.2,29.5z"/>
				<path fill="#FFFFFF" d="M119.3,30.1c0.5,3.5-1.8,6.7-5.3,7.3c-3.5,0.5-6.7-1.8-7.3-5.3c-0.5-3.5,1.8-6.7,5.3-7.3
					S118.8,26.6,119.3,30.1z"/>
				<path fill="#E3FFFE" d="M117.3,26.3c0.6,0.8,1,1.7,1.1,2.7c0.5,3.5-1.8,6.7-5.3,7.3c-1.9,0.3-3.8-0.3-5.2-1.5
					c1.4,1.9,3.7,2.9,6.1,2.6c3.5-0.5,5.8-3.8,5.3-7.3C119.1,28.6,118.4,27.3,117.3,26.3z"/>
				<path fill="#39B4EA" d="M117,30.8c0.4,2.3-1.2,4.4-3.4,4.7c-2.3,0.4-4.4-1.2-4.7-3.4c-0.4-2.3,1.2-4.4,3.4-4.7
					C114.5,27,116.7,28.5,117,30.8z"/>
				<path fill="#2D90B2" d="M113.9,27.4c0.8,0.6,1.3,1.5,1.5,2.6c0.4,2.3-1.2,4.4-3.4,4.7c-0.6,0.1-1.1,0.1-1.7-0.1
					c0.9,0.7,2,1,3.2,0.8c2.3-0.4,3.8-2.5,3.4-4.7C116.7,29.1,115.5,27.8,113.9,27.4z"/>
				<path fill="#232120" d="M115.6,31c0.2,1.4-0.7,2.7-2.1,2.9c-1.4,0.2-2.7-0.7-2.9-2.1c-0.2-1.4,0.7-2.7,2.1-2.9
					C114.1,28.7,115.4,29.6,115.6,31z"/>
				<path fill="#FFFFFF" d="M109.4,31.5c0,0.2,0.1,0.4,0.2,0.6c0.1,0.2,0.3,0.3,0.5,0.4c0.2,0,0.4,0,0.6-0.2
					c0.2-0.1,0.3-0.3,0.4-0.5c0.3-0.6,0.6-1.4,0.5-2.1c0-0.2-0.1-0.4-0.2-0.5c-0.1-0.1-0.2-0.1-0.3-0.1
					C109.9,29.2,109.3,30.5,109.4,31.5z"/>
				<g>
					<path fill="#288199" d="M112.9,35.7c-2.1,0-3.9-1.5-4.3-3.6c-0.2-1.1,0.1-2.3,0.8-3.2c0.7-0.9,1.7-1.5,2.8-1.7
						c0.2,0,0.5-0.1,0.7-0.1c2.1,0,3.9,1.5,4.3,3.6c0.4,2.4-1.2,4.6-3.6,4.9C113.4,35.7,113.1,35.7,112.9,35.7z M112.9,27.4
						c-0.2,0-0.4,0-0.6,0c-1,0.2-2,0.7-2.6,1.6c-0.6,0.9-0.9,1.9-0.7,3c0.3,1.9,2,3.4,3.9,3.4c0.2,0,0.4,0,0.6,0
						c2.2-0.3,3.6-2.4,3.3-4.5C116.5,28.9,114.9,27.4,112.9,27.4z"/>
				</g>
			</g>
			<path fill="#FFFFFF" d="M111.9,28.1c-0.1,0-0.2,0.1-0.2,0.2c-0.1,0.1-0.1,0.2,0,0.3c0.1,0.1,0.2,0.2,0.4,0.2
				c0.2,0,0.5-0.1,0.6-0.2c0.1-0.1,0.2-0.1,0.3-0.2c0.1-0.1,0.1-0.2,0-0.3c0,0-0.1-0.1-0.2-0.1C112.4,27.9,112.1,27.9,111.9,28.1
				L111.9,28.1z"/>
		</g>
		<path fill="#FFFFFF" d="M83.4,15.1c1.3-0.7,2.2-2.3,2-3.8c-0.2-1.5-1.3-2.9-2.8-3.3c1.7-0.4,3.5-0.2,4.9,0.7
			c0-1.5,0.6-2.9,1.4-4.1c0.9-1.2,2-2.2,3.1-3.2c-0.8,2.2-0.6,4.6,0.4,6.7C92.9,7.6,93.4,7.2,94,7c-0.4,0.9-0.3,1.9,0.1,2.7
			c0.5,0.8,1.2,1.3,1.8,2.1c0.2,0.3,0.4,0.7,0.4,1.1c0,0.7-0.6,1.2-1.2,1.6c-2.5,1.7-5.5,2.4-8.5,2.9c-0.9,0.2-2.1,0.1-2.5-0.8
			c-0.2-0.6,0.1-1.2,0.5-1.8L83.4,15.1z"/>
	</g>
	<path fill="#EFAC9E" d="M144.3,63c-0.1,0.4-0.2,0.9,0,1.3c0.1,0.4,0.4,0.8,0.9,1c0.4,0.1,0.8,0.1,1.1,0c0.2,0,0.4-0.1,0.6-0.2
		c0.5-0.3,0.8-0.7,1-1.2c0.2-0.4,0.3-0.8,0.3-1.2c0-1-0.9-1.7-1.9-1.5C145.3,61.4,144.5,62.2,144.3,63z"/>
	<path fill="#EFAC9E" d="M144,60.4c0,0.1,0,0.2,0.1,0.3c0.1,0.2,0.3,0.2,0.5,0.2c0.2,0,0.3-0.2,0.4-0.3c0.2-0.3,0.2-0.7,0.1-1.1
		c-0.1-0.2-0.2-0.3-0.4-0.4C144.1,58.8,143.9,60,144,60.4z"/>
	<path fill="#EFAC9E" d="M147.6,58.1c-0.5,0.4-0.8,1-0.7,1.6c0,0.2,0.1,0.4,0.2,0.5c0.2,0.2,0.6,0.2,0.9,0c0.3-0.2,0.4-0.4,0.6-0.7
		c0.1-0.3,0.2-0.7,0.1-1C148.5,58,148,57.8,147.6,58.1z"/>
	<path fill="#EFAC9E" d="M148.8,61.6c0,0.1,0,0.2,0,0.2c0.1,0.1,0.2,0.2,0.3,0.2c0.3,0.1,0.6,0,0.9-0.2c0.2-0.2,0.3-0.4,0.4-0.6
		c0.1-0.2,0.1-0.4,0.1-0.6c0-0.2-0.1-0.4-0.3-0.5C149.5,59.9,148.9,61,148.8,61.6z"/>
	<path fill="#3A3734" d="M66.8,109.3c-3.5,4.8-7.4,5.2-9.3,8.4c-1.7,2.8-1.4,5.7,0.7,8.1c1.6,1.9,1.9,2.6,4.1,2.6
		c4.1,0,10.3-1.1,14.3-2c5-1.1,10-2.4,15-3.6c1.4-0.4,3.1-0.9,3.5-2.6c0.6-2-0.9-3.8-2.3-5.1c-4.1-3.9-7.9-7.5-12.1-11.4
		C77.3,100.4,73.3,100.3,66.8,109.3z"/>
	<path fill="#232120" d="M55.5,126.1c-3.7-4-5.2-11-5.4-13.3c0-0.6-0.2-1.6,0.3-2.3c0.5-0.7,1.3-0.8,1.9-0.7
		c-0.2-0.7,0.1-1.5,0.6-2.1c0.5-0.6,1.2-1,1.9-1.2c0.7-0.2,1.5-0.4,2.2-0.2c0.7,0.1,1.4,0.5,1.8,1.2c1.1-1.1,2.9-1,4.1-0.1
		c1.2,0.8,2,2.2,2.6,3.6c1.4,3.3,2.2,6.9,2.1,10.5c0,1.6-0.2,3.2-1,4.6c-0.7,1.1-1.9,2.2-3.3,2.3C62.8,128.2,58.5,129.3,55.5,126.1z
		"/>
	<path fill="#EFAC9E" d="M54.5,116.1c-0.1,1.4,0.3,2.7,0.9,4c0.3,0.9,0.7,1.7,1.2,2.5c0.6,0.9,1.3,1.7,2.3,2.1c1,0.4,2.3,0.3,3-0.5
		c0.5-0.5,0.6-1.2,0.8-1.8c0.4-2.1,0.5-4.2,0.2-6.3c-0.1-0.6-0.2-1.3-0.5-1.8c-0.5-1-1.4-1.6-2.5-1.9
		C57.2,111.6,54.6,113.2,54.5,116.1z"/>
	<path fill="#EFAC9E" d="M55.3,108.9c0,0.4,0.1,0.8,0.3,1.1c0.1,0.3,0.3,0.7,0.6,0.9c0.3,0.2,0.7,0.4,1,0.3c0.3-0.1,0.5-0.4,0.6-0.7
		c0.1-0.3,0.1-0.6,0.1-0.9c0-0.6-0.2-1.2-0.6-1.6C56.4,107.1,55.3,107.8,55.3,108.9z"/>
	<path fill="#EFAC9E" d="M52.2,113.4c0.2,0.3,0.6,0.6,1,0.5c0.3-0.1,0.5-0.3,0.6-0.7c0.1-0.3,0-0.6-0.1-0.9
		c-0.1-0.4-0.3-0.7-0.6-0.9C51.8,110.3,51.7,112.6,52.2,113.4z"/>
	<path fill="#EFAC9E" d="M60.4,110.9c0.1,0.3,0.2,0.7,0.5,0.8c0.3,0.1,0.6,0,0.9-0.2c0.2-0.2,0.4-0.5,0.5-0.8
		c0.2-0.5,0.3-1.1,0.1-1.6c-0.2-0.6-1-1.4-1.6-0.9C60.1,108.7,60.3,110.2,60.4,110.9z"/>
	<path fill="#3A3734" d="M140.9,109.3c3.5,4.8,7.4,5.2,9.3,8.4c1.7,2.8,1.4,5.7-0.7,8.1c-1.6,1.9-1.9,2.6-4.1,2.6
		c-4.1,0-10.3-1.1-14.3-2c-5-1.1-10-2.4-15-3.6c-1.4-0.4-3.1-0.9-3.5-2.6c-0.6-2,0.9-3.8,2.3-5.1c4.1-3.9,7.9-7.5,12.1-11.4
		C130.4,100.4,134.4,100.3,140.9,109.3z"/>
	<path fill="#232120" d="M152.2,126.1c3.7-4,5.2-11,5.4-13.3c0-0.6,0.2-1.6-0.3-2.3c-0.5-0.7-1.3-0.8-1.9-0.7
		c0.2-0.7-0.1-1.5-0.6-2.1c-0.5-0.6-1.2-1-1.9-1.2c-0.7-0.2-1.5-0.4-2.2-0.2c-0.7,0.1-1.4,0.5-1.8,1.2c-1.1-1.1-2.9-1-4.1-0.1
		c-1.2,0.8-2,2.2-2.6,3.6c-1.4,3.3-2.2,6.9-2.1,10.5c0,1.6,0.2,3.2,1,4.6c0.7,1.1,1.9,2.2,3.3,2.3
		C144.9,128.2,149.2,129.3,152.2,126.1z"/>
	<path fill="#EFAC9E" d="M153.2,116.1c0.1,1.4-0.3,2.7-0.9,4c-0.3,0.9-0.7,1.7-1.2,2.5c-0.6,0.9-1.3,1.7-2.3,2.1
		c-1,0.4-2.3,0.3-3-0.5c-0.5-0.5-0.6-1.2-0.8-1.8c-0.4-2.1-0.5-4.2-0.2-6.3c0.1-0.6,0.2-1.3,0.5-1.8c0.5-1,1.4-1.6,2.5-1.9
		C150.5,111.6,153.1,113.2,153.2,116.1z"/>
	<path fill="#EFAC9E" d="M152.4,108.9c0,0.4-0.1,0.8-0.3,1.1c-0.1,0.3-0.3,0.7-0.6,0.9c-0.3,0.2-0.7,0.4-1,0.3
		c-0.3-0.1-0.5-0.4-0.6-0.7c-0.1-0.3-0.1-0.6-0.1-0.9c0-0.6,0.2-1.2,0.6-1.6C151.3,107.1,152.4,107.8,152.4,108.9z"/>
	<path fill="#EFAC9E" d="M155.5,113.4c-0.2,0.3-0.6,0.6-1,0.5c-0.3-0.1-0.5-0.3-0.6-0.7c-0.1-0.3,0-0.6,0.1-0.9
		c0.1-0.4,0.3-0.7,0.6-0.9C155.9,110.3,156,112.6,155.5,113.4z"/>
	<path fill="#EFAC9E" d="M147.3,110.9c-0.1,0.3-0.2,0.7-0.5,0.8c-0.3,0.1-0.6,0-0.9-0.2c-0.2-0.2-0.4-0.5-0.5-0.8
		c-0.2-0.5-0.3-1.1-0.1-1.6c0.2-0.6,1-1.4,1.6-0.9C147.6,108.7,147.4,110.2,147.3,110.9z"/>
	<polygon fill="#ED8080" points="119.4,126.8 88.6,126.8 84.7,96.6 124,96.6 	"/>
	<polygon fill="#EAA29B" points="84.7,96.6 124,96.6 118.6,86.9 89.7,87.6 	"/>
	<polygon fill="#BC6868" points="122.8,104.6 88.5,104.6 122.3,107.6 	"/>
	<polygon fill="#DB587A" points="99.5,96.6 101.9,126.8 107.9,126.8 109.2,96.6 	"/>
	<polygon fill="#F76692" points="99.5,96.6 100.9,87.3 108.7,87.1 109.2,96.6 	"/>
	<polygon fill="#F76692" points="88.3,90.1 120.2,89.7 121.7,92.4 87,92.4 	"/>
	<g>
		<path fill="#DB587A" d="M102.3,85.6c-0.8-0.7-1.7-1.5-2.8-1.7c-0.7-0.1-1.5,0-2.2,0.2c-0.5,0.2-1,0.4-1.3,0.9
			c-0.1,0.3-0.1,0.6-0.2,0.9c0,0.7,0,1.3,0.1,2c0,0.5,0.1,1,0.1,1.5c0,0.5,0.1,0.9,0.2,1.4c0.2,0.4,0.5,0.9,0.9,1
			c0.3,0.1,0.7,0.1,1,0.1c2.1,0,4.3-0.3,6.4-0.6c0.2,0,0.4-0.1,0.6-0.2c0.6-0.3,0.8-1,0.7-1.7c-0.1-0.9-0.8-1.3-1.4-1.9
			C103.8,87,103.1,86.3,102.3,85.6z"/>
		<path fill="#DB587A" d="M109.3,85.6c0.8-0.7,1.7-1.5,2.7-1.7c0.7-0.1,1.5,0,2.2,0.2c0.5,0.2,1,0.4,1.3,0.9
			c0.1,0.3,0.2,0.6,0.2,0.9c0,0.7,0,1.3-0.1,2c0,0.5-0.1,1-0.1,1.5c0,0.5-0.1,0.9-0.2,1.4c-0.2,0.4-0.5,0.9-0.9,1
			c-0.3,0.1-0.7,0.1-1,0.1c-2.1,0-4.3-0.2-6.4-0.6c-0.2,0-0.4-0.1-0.6-0.2c-0.6-0.3-0.8-1-0.8-1.7c0.1-0.9,0.7-1.3,1.4-1.9
			C107.7,87,108.5,86.3,109.3,85.6z"/>
		<path fill="#DB587A" d="M102.7,88.6c-0.3,1.1,0.3,2.3,1.4,2.6c0.4,0.1,0.7,0.1,1.1,0.1c0.9,0,1.8,0,2.7,0c0.1,0,0.2,0,0.3,0
			c0.2-0.1,0.3-0.3,0.4-0.5c0.5-1,0.3-2.3-0.4-3.1c-0.9-0.9-1.9-0.8-3-0.8C104.1,87.1,103,87.4,102.7,88.6z"/>
		<path fill="#F76692" d="M96.9,85.5c0.1,0.2,0.2,0.4,0.5,0.4c0.2,0,0.3,0,0.5,0c0.4,0,0.8-0.1,1.2-0.1c1.1,0,2.2,0.4,3,1.1
			c0.2,0.1,0.4,0.3,0.6,0.4c0.1-0.1,0-0.2-0.1-0.3c-0.6-0.8-1.4-1.4-2.2-1.9c-0.4-0.3-0.9-0.5-1.4-0.6c-0.5-0.1-1,0-1.5,0.2
			C97.2,84.8,96.7,85,96.9,85.5z"/>
		<path fill="#F76692" d="M103.6,88.2c-0.2,0.5-0.1,1,0,1.6c0.1,0.2,0.2,0.5,0.4,0.6c0.2,0.1,0.5,0,0.6-0.1c0.2-0.2,0.2-0.4,0.3-0.6
			c0-0.2,0-0.4,0-0.7c0-0.2,0-0.5,0.1-0.7c0.2-0.3,0.6-0.4,0.9-0.4c0.3,0,0.6,0,0.9,0c0.1,0,0.3,0.1,0.4-0.1c0.1-0.1,0.1-0.2,0-0.3
			c-0.1-0.1-0.2-0.1-0.3-0.2c-0.6-0.2-1.3-0.1-2-0.1C104.3,87.4,103.9,87.7,103.6,88.2z"/>
		<path fill="#F76692" d="M99.8,87.6c-0.1,0-0.3,0-0.4,0C99.1,87.7,99,88,99,88.3c0,0.1,0,0.2,0.1,0.3c0.1,0.2,0.4,0.2,0.7,0.2
			c0.8-0.1,1.6-0.1,2.3-0.2c0.2,0,0.4,0,0.6-0.1c0.1,0,0.2-0.1,0.2-0.2c0-0.3-1.2-0.4-1.4-0.5C101,87.7,100.4,87.6,99.8,87.6z"/>
		<path fill="#F76692" d="M99.6,90.5c-0.1,0-0.3,0.1-0.4,0.2C99.1,90.7,99,90.9,99,91c0,0.2,0.2,0.4,0.4,0.4c0.2,0.1,0.4,0,0.6,0
			c0.9-0.3,1.7-0.9,2.7-1.3c0.1,0,0.2-0.1,0.2-0.1c0.1-0.1,0.1-0.3,0-0.3c-0.1,0-0.3,0.1-0.4,0.1c-0.3,0.1-0.6,0.2-0.9,0.2
			C100.9,90.2,100.2,90.3,99.6,90.5z"/>
		<path fill="#F76692" d="M108.7,87.4c0.1,0,0.3-0.1,0.4-0.2c0.7-0.5,1.3-1.1,2-1.5c0.7-0.4,1.6-0.6,2.4-0.5c0.2,0,0.4,0.1,0.5,0
			c0.1-0.1,0.2-0.3,0.1-0.4c0-0.1-0.2-0.3-0.3-0.4c-0.5-0.4-1.2-0.3-1.8-0.1c-0.6,0.2-1.1,0.7-1.6,1.1c-0.4,0.3-0.8,0.6-1.2,0.8
			c-0.3,0.2-0.6,0.3-0.8,0.6c-0.1,0.1-0.2,0.2-0.2,0.4C108.4,87.3,108.6,87.4,108.7,87.4z"/>
		<path fill="#F76692" d="M108.4,88.8c0.1,0,0.3,0,0.4,0c0.8-0.1,1.6-0.1,2.4-0.1c0.3,0,0.7,0,1-0.1c0.3-0.1,0.6-0.3,0.6-0.6
			c0-0.3-0.2-0.5-0.4-0.6c-0.2-0.1-0.5-0.1-0.8,0c-0.6,0.1-1.1,0.4-1.7,0.6c-0.3,0.1-0.6,0.2-1,0.2c-0.2,0-0.3,0-0.5,0.1
			C108.2,88.4,108,88.7,108.4,88.8z"/>
		<path fill="#F76692" d="M108.1,90.3c0.1,0.1,0.2,0.1,0.4,0.1c0.8,0.2,1.6,0.4,2.4,0.5c0.4,0.1,0.8,0.2,1.2,0.2c0.3,0,0.5,0,0.8,0
			c0.2,0,0.4,0,0.5-0.1c0.2-0.1,0.3-0.2,0.4-0.4c0-0.2,0-0.4-0.2-0.5c-0.3-0.3-0.7-0.3-1.1-0.3c-1.2,0-2.5,0.4-3.7,0.1
			c-0.2-0.1-0.4-0.1-0.6-0.1C108,90.1,108,90.2,108.1,90.3z"/>
	</g>
	<path fill="#232120" d="M68.4,95.9c-0.4,2.5-0.5,5.1,0.5,7.4c1.2,2.5,3.6,4.3,6.3,5.1c2.6,0.9,5.5,1,8.3,1c1.9,0,3.9,0,5.7-0.9
		c0.4-0.2,0.8-0.4,0.9-0.8c0.1-0.4-0.1-0.9-0.5-0.9c0.9-0.5,1.8-1.3,1.9-2.3c0.2-1-0.9-2.2-1.8-1.8c0.5-0.1,0.4-0.9,0-1.2
		c-0.4-0.3-0.9-0.3-1.4-0.3c-3.2-0.2-7.3-1.4-9.5-3.6c-2.7-2.8-3.5-11.8-1.5-18.7C72.7,84,69.5,89.1,68.4,95.9z"/>
</g>
<path fill="#3A3734" d="M86.6,56c0,0,5.3,1.8,10.9,0.5c5.9-1.4,9.5-6.7,9.5-6.7s3.2,13.4-6,16.2C91.8,68.8,86.6,56,86.6,56z"/>
<path fill="#EFAC9E" d="M100.3,59.7c-1.5-0.3-3.1,0.3-4.1,1.3c-1.1,1.1-1.6,2.5-1.7,4c0,0.1,0,0.2,0,0.3c2,1,4.3,1.4,6.8,0.6
	c3.8-1.3,5.4-4.6,6-8c-0.7-0.3-1.4-0.5-2.2-0.6C103.2,57.2,101.3,58.2,100.3,59.7z"/>
</svg>
